<svg xmlns="http://www.w3.org/2000/svg" fill="none" height="538" width="260"><rect stroke-width="2" stroke="#2B3139" rx="38.381" height="536" width="258" y="1" x="1"/><g clip-path="url(#clip0_3669_48717)"><rect fill="#181A20" rx="32" height="520" width="240" y="9" x="10"/><path fill="#EAECEF" d="M25.425 74.648H23.72v4.792h-.645v-4.792H21.37v-.569h4.055v.569zm1.82 4.884c-1.06 0-1.79-.814-1.79-2.073 0-1.26.73-2.074 1.79-2.074 1.059 0 1.788.814 1.788 2.073 0 1.26-.73 2.074-1.789 2.074zm0-.545c.66 0 1.128-.407 1.128-1.244v-.569c0-.837-.468-1.244-1.129-1.244-.66 0-1.129.407-1.129 1.244v.569c0 .837.469 1.244 1.13 1.244zm4.442.453h-.768c-.422 0-.652-.269-.652-.653v-2.772h-.653v-.538h.369c.26 0 .345-.092.345-.36v-.738h.553v1.098h.868v.538h-.868v2.887h.806v.538zm4.275 0h-.346c-.453 0-.637-.276-.683-.645h-.038c-.17.484-.592.737-1.145.737-.837 0-1.328-.46-1.328-1.198 0-.745.537-1.16 1.69-1.16h.783v-.391c0-.561-.308-.868-.937-.868-.477 0-.791.23-1.006.591l-.37-.345c.216-.423.692-.776 1.406-.776.953 0 1.521.5 1.521 1.336v2.181h.453v.538zm-2.112-.43c.607 0 1.045-.315 1.045-.722v-.653h-.815c-.698 0-1.013.215-1.013.6v.16c0 .392.307.615.783.615zm4.187.43h-.545c-.423 0-.653-.269-.653-.638v-5.045h.614v5.145h.584v.538zm2.77 0v-5.36h2.205c.883 0 1.429.545 1.429 1.382 0 .798-.515 1.083-.868 1.136v.046c.384.023 1.052.354 1.052 1.245 0 .883-.592 1.55-1.383 1.55h-2.434zm.646-4.792v1.75h1.482c.507 0 .814-.268.814-.744v-.261c0-.477-.307-.745-.814-.745h-1.482zm0 2.304v1.92h1.59c.553 0 .89-.292.89-.83v-.26c0-.538-.337-.83-.89-.83h-1.59zm7.537 2.488h-.346c-.453 0-.637-.276-.683-.645h-.039c-.169.484-.591.737-1.144.737-.837 0-1.329-.46-1.329-1.198 0-.745.538-1.16 1.69-1.16h.783v-.391c0-.561-.307-.868-.937-.868-.476 0-.79.23-1.006.591l-.369-.345c.215-.423.692-.776 1.406-.776.952 0 1.52.5 1.52 1.336v2.181h.454v.538zm-2.112-.43c.606 0 1.044-.315 1.044-.722v-.653h-.814c-.699 0-1.014.215-1.014.6v.16c0 .392.307.615.784.615zm4.187.43h-.546c-.422 0-.652-.269-.652-.638v-5.045h.614v5.145h.584v.538zm4.12 0h-.346c-.453 0-.637-.276-.683-.645h-.039c-.169.484-.591.737-1.144.737-.837 0-1.329-.46-1.329-1.198 0-.745.538-1.16 1.69-1.16h.783v-.391c0-.561-.307-.868-.937-.868-.476 0-.79.23-1.006.591l-.369-.345c.215-.423.692-.776 1.406-.776.952 0 1.52.5 1.52 1.336v2.181h.454v.538zm-2.112-.43c.606 0 1.044-.315 1.044-.722v-.653h-.814c-.699 0-1.014.215-1.014.6v.16c0 .392.307.615.784.615zm3.603.43h-.614v-3.963h.614v.645h.03c.193-.445.53-.737 1.122-.737.814 0 1.328.553 1.328 1.513v2.542h-.614v-2.435c0-.706-.307-1.067-.898-1.067-.492 0-.968.246-.968.752v2.75zm5.225.092c-1.114 0-1.766-.806-1.766-2.073 0-1.268.652-2.074 1.766-2.074.783 0 1.252.384 1.482.93l-.514.26c-.146-.407-.484-.645-.968-.645-.73 0-1.106.5-1.106 1.19v.676c0 .692.376 1.19 1.106 1.19.5 0 .86-.237 1.075-.69l.446.3c-.254.567-.768.936-1.521.936zm3.833 0c-1.075 0-1.782-.814-1.782-2.073 0-1.26.707-2.074 1.782-2.074 1.06 0 1.713.814 1.713 1.935v.292h-2.85v.184c0 .684.438 1.198 1.175 1.198.5 0 .883-.245 1.09-.683l.439.315c-.254.537-.822.906-1.567.906zm0-3.632c-.668 0-1.137.506-1.137 1.197v.054h2.19v-.084c0-.7-.423-1.167-1.053-1.167z"/><path fill="#848E9C" d="M74.6 77.506a1.067 1.067 0 100-2.133 1.067 1.067 0 000 2.133z"/><path fill="#848E9C" d="M72.276 74.012l-2.37 2.428 2.37 2.427a3.23 3.23 0 004.647 0l2.37-2.427-2.37-2.428a3.23 3.23 0 00-4.647 0zm4.457 2.428a2.133 2.133 0 11-4.267 0 2.133 2.133 0 014.267 0z" clip-rule="evenodd" fill-rule="evenodd"/><path fill="#EAECEF" d="M28.472 105.399h-2.028v-1.823c-2.068-.163-3.44-1.044-4.465-2.232l1.66-1.515c.798.921 1.781 1.536 2.99 1.699v-4.157c-2.99-.635-4.24-1.925-4.24-3.932 0-2.171 1.495-3.564 4.055-3.85v-1.844h2.028v1.843c1.7.185 2.928.86 3.85 1.987l-1.68 1.454c-.532-.655-1.27-1.167-2.355-1.392v3.809c2.908.676 4.24 1.823 4.24 3.932s-1.373 3.748-4.055 4.137v1.884zm-3.605-12.063c0 .963.553 1.413 1.761 1.741v-3.461c-1.167.205-1.76.799-1.76 1.72zm5.202 6.226c0-.819-.41-1.454-1.782-1.822v3.768c1.147-.246 1.782-.983 1.782-1.946zm8.573-10.137h2.048c.144 0 .246.102.246.245v13.804a.237.237 0 01-.246.246h-1.863a.237.237 0 01-.246-.246V92.067L36 94.422c-.144.143-.308.061-.308-.144v-2.252a.44.44 0 01.143-.308l2.52-2.17a.372.372 0 01.286-.123zm11.207 14.54c-2.314 0-4.178-1.576-4.178-4.157v-6.472c0-2.58 1.864-4.157 4.178-4.157 2.335 0 4.198 1.577 4.198 4.157v6.472c0 2.581-1.863 4.157-4.198 4.157zm0-2.375c1.208 0 1.925-.881 1.925-2.15v-5.735c0-1.27-.717-2.15-1.925-2.15-1.188 0-1.905.88-1.905 2.15v5.734c0 1.27.717 2.151 1.905 2.151zm8.729-1.024c1.105 0 1.638.635 1.638 1.515v.369c0 1.495-.84 3.195-2.09 4.198h-1.863c.922-.901 1.557-1.699 1.884-2.744-.84-.143-1.208-.717-1.208-1.454v-.369c0-.88.512-1.515 1.639-1.515zm4.901-11.141h8.028c.144 0 .246.102.246.245v1.414a.91.91 0 01-.061.307l-4.629 12.144c-.04.123-.143.185-.287.185h-2.11c-.183 0-.265-.103-.204-.287l4.526-11.776h-3.46v1.597a.237.237 0 01-.247.246H63.48a.237.237 0 01-.246-.246V89.67c0-.143.103-.245.246-.245zm14.75 14.54c-2.499 0-4.465-1.597-4.465-4.218 0-1.741.963-2.806 1.987-3.42-.942-.574-1.741-1.598-1.741-3.134 0-2.417 1.843-4.014 4.219-4.014 2.376 0 4.24 1.597 4.24 4.014 0 1.536-.8 2.56-1.742 3.133 1.024.615 1.987 1.68 1.987 3.42 0 2.622-1.987 4.219-4.485 4.219zm0-8.847c1.065 0 1.823-.778 1.823-1.864 0-1.065-.758-1.863-1.823-1.863s-1.802.798-1.802 1.863c0 1.086.737 1.864 1.802 1.864zm0 6.615c1.126 0 2.007-.901 2.007-2.048 0-1.126-.88-2.027-2.007-2.027-1.126 0-2.007.9-2.007 2.027 0 1.147.88 2.048 2.007 2.048zm10.92-12.554c2.54 0 4.26 1.761 4.26 4.3 0 1.025-.246 1.946-1.004 3.462l-3.256 6.594a.31.31 0 01-.287.185h-2.068c-.185 0-.267-.103-.185-.287l2.888-5.775a3.36 3.36 0 01-.82.082c-2.19 0-3.768-1.741-3.768-4.158 0-2.642 1.7-4.403 4.24-4.403zm.02 6.287c1.045 0 1.68-.737 1.68-1.945 0-1.147-.635-1.946-1.68-1.946-1.044 0-1.7.778-1.7 1.946 0 1.208.635 1.945 1.7 1.945zm8.524 8.479c-1.106 0-1.638-.635-1.638-1.495v-.369c0-.88.532-1.515 1.638-1.515 1.127 0 1.639.635 1.639 1.515v.369c0 .86-.512 1.495-1.639 1.495zm8.229-14.52h2.048c.143 0 .246.102.246.245v13.804a.237.237 0 01-.246.246h-1.864a.237.237 0 01-.245-.246V92.067l-2.581 2.355c-.143.143-.307.061-.307-.144v-2.252c0-.123.061-.226.143-.308l2.519-2.17a.372.372 0 01.287-.123zm9.937 12.042h5.304c.144 0 .246.102.246.246v1.761a.237.237 0 01-.246.246h-7.905a.237.237 0 01-.246-.246v-1.843c0-.123.021-.226.103-.307l5.243-6.513c.45-.553.635-1.024.635-1.618 0-1.147-.676-1.843-1.762-1.843-.983 0-1.679.655-1.761 1.659-.021.163-.123.245-.266.245h-1.925c-.144 0-.246-.082-.246-.245.123-2.294 1.761-3.83 4.198-3.83 2.519 0 4.178 1.597 4.178 4.055 0 1.085-.328 1.823-1.372 3.113l-4.178 5.12zm7.35 70.093h4.867l-.003 1.92h-4.864v-1.92z"/><path fill="#E6E8EA" d="M131.275 171.56h4.871l.006 1.92h-4.877v-1.92z"/><path fill="#848E9C" d="M26.451 136.16l-1.958-3.272-.645-1.19h-.023v4.462h-.63v-5.361h.745l1.958 3.272.645 1.19h.023v-4.462h.63v5.361h-.745zm3.602.092c-1.075 0-1.782-.814-1.782-2.074 0-1.259.707-2.073 1.782-2.073 1.06 0 1.713.814 1.713 1.935v.292h-2.85v.184c0 .684.438 1.198 1.176 1.198.499 0 .883-.246 1.09-.683l.438.315c-.254.537-.822.906-1.567.906zm0-3.633c-.668 0-1.137.507-1.137 1.198v.054h2.19v-.084c0-.699-.423-1.168-1.053-1.168zm3.333 3.541l-1.06-3.963h.6l.421 1.712.423 1.736h.015l.484-1.736.5-1.712h.545l.514 1.712.492 1.736h.015l.407-1.736.43-1.712h.576l-1.052 3.963h-.76l-.553-1.905-.346-1.206h-.015l-.338 1.206-.553 1.905h-.745zm7.088-5.361h.645v3.318c0 1.021.33 1.559 1.282 1.559.953 0 1.283-.538 1.283-1.559v-3.318h.645v3.164c0 1.559-.522 2.289-1.95 2.289-1.429 0-1.905-.73-1.905-2.289v-3.164zm6.372 5.453c-.73 0-1.213-.307-1.567-.776l.438-.353c.307.384.676.607 1.175.607.522 0 .83-.238.83-.646 0-.307-.17-.545-.691-.622l-.315-.046c-.73-.107-1.275-.407-1.275-1.144 0-.783.606-1.167 1.413-1.167.637 0 1.06.238 1.382.637l-.407.369c-.176-.246-.514-.484-1.021-.484-.507 0-.776.238-.776.614 0 .384.269.538.76.615l.308.046c.875.13 1.213.514 1.213 1.113 0 .768-.56 1.237-1.467 1.237zm4.042 0c-1.075 0-1.782-.814-1.782-2.074 0-1.259.707-2.073 1.782-2.073 1.06 0 1.713.814 1.713 1.935v.292h-2.85v.184c0 .684.438 1.198 1.176 1.198.499 0 .883-.246 1.09-.683l.438.315c-.253.537-.822.906-1.567.906zm0-3.633c-.668 0-1.136.507-1.136 1.198v.054h2.188v-.084c0-.699-.422-1.168-1.052-1.168zm3.34 3.541h-.615v-3.963h.615v.729h.038c.138-.376.5-.729 1.144-.729h.239v.614h-.361c-.661 0-1.06.284-1.06.661v2.688zm7.545-.569v.569h-3.901v-.584l3.095-4.209h-2.934v-.568h3.633v.584l-3.103 4.208h3.21zm2.39.661c-1.06 0-1.79-.814-1.79-2.074 0-1.259.73-2.073 1.79-2.073s1.79.814 1.79 2.073c0 1.26-.73 2.074-1.79 2.074zm0-.545c.66 0 1.13-.407 1.13-1.245v-.568c0-.837-.47-1.244-1.13-1.244-.66 0-1.129.407-1.129 1.244v.568c0 .838.469 1.245 1.13 1.245zm3.415.453h-.615v-3.963h.615v.645h.03c.192-.446.53-.737 1.122-.737.814 0 1.328.553 1.328 1.513v2.542h-.614v-2.435c0-.706-.307-1.067-.899-1.067-.491 0-.967.245-.967.752v2.75zm5.24.092c-1.075 0-1.782-.814-1.782-2.074 0-1.259.707-2.073 1.782-2.073 1.06 0 1.713.814 1.713 1.935v.292h-2.85v.184c0 .684.438 1.198 1.176 1.198.499 0 .883-.246 1.09-.683l.438.315c-.254.537-.822.906-1.567.906zm0-3.633c-.668 0-1.136.507-1.136 1.198v.054h2.188v-.084c0-.699-.422-1.168-1.052-1.168z"/><path fill="#EAECEF" d="M23.32 145.292h1.137v4.403c0 1.208.42 1.833 1.536 1.833s1.536-.625 1.536-1.833v-4.403h1.136v4.219c0 2.089-.716 3.051-2.672 3.051-1.956 0-2.673-.962-2.673-3.051v-4.219zm8.095 7.147H30.3v-5.324h1.116v.88h.052c.225-.573.675-1.003 1.495-1.003 1.085 0 1.73.758 1.73 2.068v3.379h-1.116v-3.235c0-.83-.318-1.25-1.004-1.25-.583 0-1.157.297-1.157.922v3.563zm6.678 0h-.717c-.758 0-1.137-.419-1.137-1.105v-6.472h1.116v6.666h.738v.911zm3.155.123c-1.485 0-2.447-1.085-2.447-2.785 0-1.7.962-2.785 2.447-2.785s2.448 1.085 2.448 2.785c0 1.7-.963 2.785-2.448 2.785zm0-.921c.758 0 1.27-.471 1.27-1.413v-.902c0-.942-.512-1.413-1.27-1.413s-1.27.471-1.27 1.413v.902c0 .942.512 1.413 1.27 1.413zm5.75.921c-1.537 0-2.417-1.085-2.417-2.785 0-1.7.88-2.785 2.416-2.785 1.065 0 1.741.522 2.059 1.31l-.922.431c-.154-.492-.532-.809-1.137-.809-.819 0-1.239.563-1.239 1.382v.952c0 .82.42 1.383 1.24 1.383.645 0 1.023-.348 1.249-.881l.85.451c-.349.87-1.076 1.351-2.1 1.351zm3.161-.123v-7.577h1.116v4.649h.052l.737-.953 1.28-1.443h1.3l-1.863 2.058 2.089 3.266h-1.332l-1.525-2.539-.738.799v1.74H50.16zm9.863-7.27h.932c.072 0 .123.051.123.123v7.025a.118.118 0 01-.123.122h-.89a.118.118 0 01-.123-.122v-5.868l-1.27 1.116c-.082.072-.154.031-.154-.071v-1.004a.22.22 0 01.072-.154l1.29-1.106a.189.189 0 01.143-.061zm5.542 7.393c-1.157 0-2.099-.788-2.099-2.089v-3.215c0-1.3.942-2.089 2.1-2.089 1.167 0 2.109.789 2.109 2.089v3.215c0 1.301-.942 2.089-2.11 2.089zm0-1.065c.615 0 .973-.45.973-1.095v-3.072c0-.645-.358-1.096-.973-1.096-.604 0-.962.451-.962 1.096v3.072c0 .645.358 1.095.962 1.095zm5.46 1.065c-1.157 0-2.099-.788-2.099-2.089v-3.215c0-1.3.942-2.089 2.1-2.089 1.167 0 2.109.789 2.109 2.089v3.215c0 1.301-.942 2.089-2.11 2.089zm0-1.065c.615 0 .973-.45.973-1.095v-3.072c0-.645-.358-1.096-.973-1.096-.604 0-.962.451-.962 1.096v3.072c0 .645.358 1.095.962 1.095zm5.996-6.205h1.137v4.403c0 1.208.42 1.833 1.536 1.833s1.536-.625 1.536-1.833v-4.403h1.136v4.219c0 2.089-.716 3.051-2.672 3.051-1.956 0-2.673-.962-2.673-3.051v-4.219zm9.201 7.27c-1.198 0-2.017-.471-2.61-1.208l.798-.748c.501.615 1.095.932 1.874.932.911 0 1.382-.45 1.382-1.136 0-.553-.287-.871-1.116-1.035l-.635-.112c-1.382-.256-2.089-.901-2.089-2.038 0-1.27.983-2.048 2.499-2.048 1.075 0 1.863.389 2.416 1.096l-.809.717c-.368-.482-.88-.789-1.669-.789-.819 0-1.29.338-1.29.963 0 .594.369.85 1.137 1.003l.635.133c1.423.277 2.068.912 2.068 2.048 0 1.331-.952 2.222-2.59 2.222zm3.98-.123v-7.147h2.53c1.822 0 3.02 1.188 3.02 3.574s-1.198 3.573-3.02 3.573H90.2zm1.157-1.024h1.372c1.065 0 1.782-.686 1.782-1.976v-1.147c0-1.29-.717-1.976-1.782-1.976h-1.372v5.099zm7.058 1.024v-6.123h-2.13v-1.024h5.417v1.024h-2.13v6.123h-1.157zm7.675 0l-1.454-5.324h1.085l.543 2.232.481 2.017h.031l.553-2.017.645-2.232h1.003l.656 2.232.563 2.017h.031l.471-2.017.553-2.232h1.034l-1.434 5.324h-1.259l-1.127-3.921h-.02l-.42 1.495-.706 2.426h-1.229zm9.277.123c-1.515 0-2.447-1.085-2.447-2.785 0-1.7.932-2.785 2.447-2.785 1.567 0 2.366 1.177 2.366 2.652v.42h-3.656v.174c0 .819.502 1.403 1.403 1.403.655 0 1.095-.307 1.403-.799l.655.645c-.399.645-1.178 1.075-2.171 1.075zm0-4.7c-.768 0-1.29.574-1.29 1.393v.071h2.478v-.102c0-.819-.451-1.362-1.188-1.362zm5.455 4.577h-.717c-.758 0-1.137-.419-1.137-1.105v-6.472h1.116v6.666h.738v.911zm3.124.123c-1.536 0-2.416-1.085-2.416-2.785 0-1.7.88-2.785 2.416-2.785 1.065 0 1.741.522 2.059 1.31l-.922.431c-.154-.492-.532-.809-1.137-.809-.819 0-1.239.563-1.239 1.382v.952c0 .82.42 1.383 1.239 1.383.646 0 1.024-.348 1.25-.881l.85.451c-.349.87-1.076 1.351-2.1 1.351zm5.191 0c-1.485 0-2.447-1.085-2.447-2.785 0-1.7.962-2.785 2.447-2.785s2.448 1.085 2.448 2.785c0 1.7-.963 2.785-2.448 2.785zm0-.921c.758 0 1.27-.471 1.27-1.413v-.902c0-.942-.512-1.413-1.27-1.413s-1.27.471-1.27 1.413v.902c0 .942.512 1.413 1.27 1.413zm4.807.798h-1.116v-5.324h1.116v.88h.052c.215-.553.614-1.003 1.423-1.003.717 0 1.321.348 1.577 1.085h.031c.194-.594.747-1.085 1.607-1.085 1.055 0 1.68.758 1.68 2.068v3.379h-1.117v-3.246c0-.819-.307-1.239-.983-1.239-.563 0-1.085.297-1.085.912v3.573h-1.116v-3.246c0-.829-.318-1.239-.973-1.239-.553 0-1.096.297-1.096.912v3.573zm10.003.123c-1.515 0-2.447-1.085-2.447-2.785 0-1.7.932-2.785 2.447-2.785 1.567 0 2.366 1.177 2.366 2.652v.42h-3.656v.174c0 .819.502 1.403 1.403 1.403.655 0 1.095-.307 1.403-.799l.655.645c-.399.645-1.178 1.075-2.171 1.075zm0-4.7c-.768 0-1.29.574-1.29 1.393v.071h2.478v-.102c0-.819-.451-1.362-1.188-1.362zM24.395 167.439H23.28v-5.324h1.116v1.024h.052c.153-.543.614-1.024 1.464-1.024h.297v1.075h-.44c-.881 0-1.373.297-1.373.85v3.399zm4.843.123c-1.515 0-2.447-1.085-2.447-2.785 0-1.7.932-2.785 2.447-2.785 1.567 0 2.366 1.177 2.366 2.652v.42h-3.656v.174c0 .819.502 1.403 1.403 1.403.655 0 1.096-.307 1.403-.799l.655.645c-.4.645-1.178 1.075-2.17 1.075zm0-4.7c-.768 0-1.29.574-1.29 1.393v.071h2.478v-.102c0-.819-.45-1.362-1.188-1.362zm4.473 4.577l-1.454-5.324h1.085l.543 2.232.481 2.017h.03l.554-2.017.645-2.232h1.004l.655 2.232.563 2.017h.03l.472-2.017.553-2.232h1.034l-1.434 5.324h-1.26l-1.126-3.921h-.02l-.42 1.495-.706 2.426h-1.23zm11.674 0h-.624c-.584 0-.891-.368-.963-.89h-.051c-.205.665-.778 1.013-1.557 1.013-1.095 0-1.72-.624-1.72-1.587 0-1.055.788-1.597 2.273-1.597h.963v-.451c0-.645-.348-1.024-1.096-1.024-.624 0-1.003.307-1.27.727l-.665-.604c.348-.594.973-1.034 2.007-1.034 1.372 0 2.14.676 2.14 1.863v2.673h.563v.911zm-2.877-.727c.686 0 1.198-.327 1.198-.85v-.768h-.942c-.778 0-1.157.256-1.157.717v.185c0 .471.348.716.9.716zm5.087.727H46.48v-5.324h1.116v1.024h.052c.153-.543.614-1.024 1.464-1.024h.297v1.075h-.44c-.881 0-1.373.297-1.373.85v3.399zm6.103 0v-.88h-.051c-.226.624-.789 1.003-1.496 1.003-1.341 0-2.12-1.034-2.12-2.785 0-1.751.779-2.785 2.12-2.785.707 0 1.27.368 1.495 1.003h.052v-3.133h1.116v7.577h-1.116zm-1.209-.839c.676 0 1.209-.369 1.209-.912v-1.822c0-.543-.533-.912-1.209-.912-.768 0-1.28.543-1.28 1.362v.922c0 .819.512 1.362 1.28 1.362zm5.61.962c-1.004 0-1.66-.379-2.16-1.003l.716-.656c.39.471.87.758 1.505.758.645 0 .973-.266.973-.717 0-.338-.205-.594-.758-.665l-.491-.062c-1.086-.133-1.751-.604-1.751-1.587 0-1.034.809-1.638 1.976-1.638.963 0 1.505.317 1.987.85l-.686.655a1.694 1.694 0 00-1.301-.604c-.614 0-.901.266-.901.665 0 .41.256.594.82.687l.49.061c1.168.174 1.69.686 1.69 1.546 0 1.024-.83 1.71-2.11 1.71zm4.353-2.171h-.512l-.358-3.061v-2.038h1.208v2.038l-.338 3.061zm-.256 2.171c-.522 0-.747-.286-.747-.676v-.174c0-.389.225-.675.747-.675.523 0 .748.286.748.675v.174c0 .39-.226.676-.748.676z"/><path stroke-width=".32" stroke="#2B3139" d="M249.68 181.96h-240m240-64h-240"/><path fill="#9D562D" d="M218.9 142.887a1.214 1.214 0 01-1.525.789l-5.24-1.665a2.224 2.224 0 01-1.467-2.724l1.25-4.433 2.337.659-1.197 4.243 5.052 1.606c.639.203.993.886.79 1.525z" clip-rule="evenodd" fill-rule="evenodd"/><path fill="#CACED3" d="M218.903 142.89a1.216 1.216 0 01-1.527.789l-3.633-1.157.737-2.315 3.634 1.157c.639.203.992.887.789 1.526z" clip-rule="evenodd" fill-rule="evenodd"/><path fill="#9D562D" d="M211.798 135.252c.659-2.542 2.571-1.649 2.571-1.649l-.571 2.202-2-.553z"/><path fill="#9D562D" d="M213.411 136.022a.338.338 0 00.477.023l.791-.721a.337.337 0 10-.453-.498l-.792.72a.337.337 0 00-.023.476zm5.279 6.036a1.214 1.214 0 011.49-.853l5.146 1.401a2.785 2.785 0 011.642 1.23l2.592 4.221-2.07 1.271-2.592-4.221a.352.352 0 00-.21-.158l-5.146-1.401a1.213 1.213 0 01-.852-1.49z" clip-rule="evenodd" fill-rule="evenodd"/><path fill="#CACED3" d="M218.689 142.057a1.216 1.216 0 011.492-.853l4.473 1.217-.638 2.344-4.473-1.216a1.216 1.216 0 01-.854-1.492z" clip-rule="evenodd" fill-rule="evenodd"/><path fill="#9D562D" d="M227.177 147.859l1.605-1.06.795 1.267c.4.639.2 1.481-.445 1.871l-.484.293-1.471-2.371z"/><path fill="#9D562D" d="M227.5 150.246a.337.337 0 01-.218-.424l.284-.886a.337.337 0 01.642.206l-.284.886a.336.336 0 01-.424.218z" clip-rule="evenodd" fill-rule="evenodd"/><path fill="#9D562D" d="M218.429 137.403c.871 0 1.576.706 1.576 1.578a1.576 1.576 0 11-3.151 0c0-.872.705-1.578 1.575-1.578z"/><mask height="4" width="5" y="137" x="216" maskUnits="userSpaceOnUse" style="mask-type:alpha" id="a"><path fill="#935A30" d="M218.429 137.403c.871 0 1.576.706 1.576 1.578a1.576 1.576 0 11-3.151 0c0-.872.705-1.578 1.575-1.578z"/></mask><g mask="url(#a)"><path fill="#181E25" d="M219.004 135.361a1.577 1.577 0 11-.002 3.154 1.577 1.577 0 01.002-3.154z"/></g><path fill="#181E25" d="M218.535 137.402a.504.504 0 11-1.009 0 .504.504 0 011.009 0z"/><path fill="#6A4C0C" d="M216.825 151.404l4.932-2.784-1.459-2.584-5.114 2.887c-1.794 1.012-1.941 3.54-.277 4.755l6.339 4.627 1.75-2.397-6.171-4.504z" clip-rule="evenodd" fill-rule="evenodd"/><path fill="#76808E" d="M216.798 151.42l4.547-2.577-1.464-2.582-4.546 2.577 1.463 2.582z" clip-rule="evenodd" fill-rule="evenodd"/><path fill="#572703" d="M220.472 161.246l3.709-3.772-1.477-1.491-2.141 1.795-.091 3.468z"/><path fill="#9D562D" d="M222.142 146.664a1.483 1.483 0 00-2.094-.131l-3.938 3.478-.261.247a1.81 1.81 0 00-.041 2.584l6.649 6.73 2.111-2.085-5.796-5.868 3.24-2.861c.615-.542.673-1.48.13-2.094z" clip-rule="evenodd" fill-rule="evenodd"/><path fill="#9D562D" d="M222.368 162.537l3.217-4.047-1.417-1.41-1.877 2.313.077 3.144z"/><path fill="#CACED3" d="M221.607 142.397l1.14 2.31-4.011 2.212-1.233-2.497a2.288 2.288 0 014.104-2.025z"/><path fill="#929AA5" d="M222.104 148.669c1.271-1.126.957-3.111.642-3.962l-4.012 2.207c.595 1.055 2.1 2.882 3.37 1.755z"/><path fill="#929AA5" d="M222.143 146.664a1.484 1.484 0 00-2.095-.131l-3.241 2.861 1.964 2.225 3.241-2.861c.614-.542.673-1.48.131-2.094z" clip-rule="evenodd" fill-rule="evenodd"/><path fill="#fff" d="M222.63 163.074l6.227-6.232h-4.767l-3.852 3.84 2.392 2.392z"/><path fill="url(#paint0_linear_3669_48717)" d="M220.586 165.509l8.718-8.719v3.208h3.344v-8.916h-8.934v3.344h3.225l-6.353 6.355-1.762-1.763-2.23-2.229-1.475 1.475-8.961 8.958h4.734l5.702-5.705 3.992 3.992z" clip-rule="evenodd" fill-rule="evenodd"/><g clip-path="url(#clip1_3669_48717)"><path fill="#848E9C" d="M22.74 204.68h-1.536l-1.659-7.148h1.352l.707 3.431.44 2.191h.03l.513-2.191.819-3.431h1.495l.82 3.431.501 2.191h.03l.451-2.191.727-3.431h1.29l-1.71 7.148h-1.525l-.912-3.779-.44-1.884h-.02l-.461 1.884-.912 3.779zm8.088.123c-1.085 0-1.7-.625-1.7-1.577 0-1.096.83-1.639 2.284-1.639h.911v-.389c0-.594-.297-.942-.993-.942-.615 0-.963.307-1.219.676l-.778-.696c.39-.615 1.014-1.024 2.089-1.024 1.444 0 2.212.686 2.212 1.904v2.519h.532v1.045h-.727c-.563 0-.911-.369-.993-.922h-.061c-.175.686-.758 1.045-1.557 1.045zm.44-.953c.584 0 1.055-.266 1.055-.768v-.706h-.84c-.686 0-1.024.235-1.024.655v.174c0 .43.297.645.81.645zm6.53.83h-.942c-.9 0-1.382-.492-1.382-1.362v-2.939h-.789v-1.045h.41c.389 0 .512-.184.512-.553v-.911h1.178v1.464h1.095v1.045h-1.096v3.256h1.014v1.045zm3.288.123c-1.576 0-2.467-1.086-2.467-2.806 0-1.71.89-2.785 2.468-2.785 1.075 0 1.781.512 2.099 1.351l-1.075.481c-.123-.45-.461-.778-1.024-.778-.728 0-1.096.512-1.096 1.26v.973c0 .747.368 1.249 1.096 1.249.624 0 .931-.359 1.126-.84l1.003.481c-.348.943-1.095 1.414-2.13 1.414zm3.141-.123v-7.578h1.31v3.123h.052c.215-.573.666-1.013 1.495-1.013 1.096 0 1.71.757 1.71 2.088v3.38h-1.31v-3.246c0-.758-.257-1.147-.881-1.147-.543 0-1.065.286-1.065.86v3.533h-1.31zm8.037 0h-.706c-.891 0-1.31-.471-1.31-1.291v-6.287h1.31v6.533h.706v1.045zm1.648-6.124c-.542 0-.768-.276-.768-.655v-.205c0-.379.226-.655.768-.655.533 0 .768.276.768.655v.205c0 .379-.235.655-.768.655zm-.655 6.124v-5.346h1.31v5.346h-1.31zm4.581.123c-1.014 0-1.68-.369-2.212-.983l.799-.779c.39.451.86.727 1.464.727.625 0 .891-.235.891-.614 0-.307-.184-.502-.655-.563l-.533-.072c-1.146-.143-1.781-.645-1.781-1.618 0-1.034.809-1.689 2.027-1.689 1.045 0 1.577.307 2.09.839l-.769.768a1.768 1.768 0 00-1.28-.573c-.563 0-.809.225-.809.553 0 .358.195.522.696.604l.543.072c1.168.163 1.73.686 1.73 1.577 0 1.034-.87 1.751-2.2 1.751zm5.89-.123h-.942c-.9 0-1.382-.492-1.382-1.362v-2.939h-.789v-1.045h.41c.389 0 .512-.184.512-.553v-.911h1.178v1.464h1.095v1.045h-1.096v3.256h1.014v1.045z"/><path fill="#EAECEF" d="M77.494 204.803c-1.885 0-3.083-1.239-3.083-3.646 0-2.406 1.198-3.748 3.083-3.748 1.28 0 2.11.543 2.61 1.649l-1.156.614c-.205-.635-.656-1.065-1.454-1.065-1.004 0-1.649.727-1.649 1.946v1.126c0 1.229.645 1.925 1.649 1.925.809 0 1.31-.491 1.546-1.136l1.095.645c-.511 1.065-1.361 1.69-2.641 1.69zm5.832 0c-1.525 0-2.478-1.086-2.478-2.806 0-1.71.953-2.785 2.478-2.785 1.536 0 2.489 1.075 2.489 2.785 0 1.72-.953 2.806-2.489 2.806zm0-1.055c.686 0 1.117-.44 1.117-1.249v-.994c0-.798-.43-1.239-1.117-1.239-.675 0-1.106.441-1.106 1.239v.994c0 .809.43 1.249 1.106 1.249zm4.306-5.192c-.543 0-.768-.276-.768-.655v-.205c0-.379.225-.655.768-.655.532 0 .768.276.768.655v.205c0 .379-.236.655-.768.655zm-.655 6.124v-5.346h1.31v5.346h-1.31zm4.14 0h-1.31v-5.346h1.31v.891h.052c.215-.573.665-1.013 1.495-1.013 1.095 0 1.71.757 1.71 2.088v3.38h-1.311v-3.246c0-.758-.256-1.147-.88-1.147-.543 0-1.066.286-1.066.86v3.533z"/></g><rect fill="#29313D" rx="7.68" height="15.84" width="23.24" y="215.08" x="19.279"/><path fill="#EAECEF" d="M28.354 226v-2.335h-2.427V226h-.868v-5.361h.868v2.258h2.427v-2.258h.867V226h-.867zm3.693.092c-1.114 0-1.836-.814-1.836-2.089s.722-2.089 1.836-2.089c1.113 0 1.835.814 1.835 2.089s-.722 2.089-1.835 2.089zm0-.691c.568 0 .952-.353.952-1.06v-.676c0-.706-.384-1.06-.952-1.06-.569 0-.953.354-.953 1.06v.676c0 .707.384 1.06.953 1.06zm4.581.599h-.73c-.576 0-.883-.323-.883-.868v-2.442h-.622v-.684h.338c.276 0 .369-.115.369-.391v-.699h.752v1.09h.837v.684h-.837v2.626h.776V226z"/><path fill="#848E9C" d="M53.422 226v-5.361h1.03l1.436 2.727h.046l1.436-2.727h.983V226h-.83v-4.101h-.038l-.422.868-1.175 2.142-1.176-2.142-.422-.868h-.038V226h-.83zm9.588 0h-.468c-.438 0-.668-.276-.722-.668h-.038c-.154.499-.584.76-1.168.76-.822 0-1.29-.468-1.29-1.19 0-.791.591-1.198 1.705-1.198h.722v-.338c0-.484-.261-.768-.822-.768-.468 0-.753.23-.952.545l-.5-.453c.262-.446.73-.776 1.506-.776 1.029 0 1.605.507 1.605 1.398v2.004h.422V226zm-2.158-.545c.515 0 .899-.246.899-.638v-.576h-.707c-.583 0-.868.192-.868.538v.138c0 .353.261.538.676.538zm3.816.545h-.837v-3.994h.837v.768h.038c.115-.407.461-.768 1.099-.768h.222v.807h-.33c-.66 0-1.03.223-1.03.637V226zm2.103 0v-5.683h.837v3.487h.038l.553-.715.96-1.083h.976l-1.398 1.544 1.567 2.45h-.999l-1.144-1.905-.553.599V226h-.837zm5.602.092c-1.137 0-1.836-.814-1.836-2.089s.699-2.089 1.835-2.089c1.175 0 1.775.883 1.775 1.989v.315h-2.742v.131c0 .614.376 1.052 1.052 1.052.492 0 .822-.23 1.052-.599l.492.484c-.3.484-.884.806-1.629.806zm0-3.525c-.577 0-.968.43-.968 1.045v.053h1.858v-.077c0-.614-.338-1.021-.89-1.021zM76.909 226h-.73c-.576 0-.883-.323-.883-.868v-2.442h-.622v-.684h.338c.276 0 .368-.115.368-.391v-.699h.753v1.09h.837v.684h-.837v2.626h.776V226zm4.858.092c-1.398 0-2.25-.975-2.25-2.772 0-1.797.852-2.773 2.25-2.773.93 0 1.551.415 1.912 1.214l-.73.399c-.184-.507-.56-.837-1.182-.837-.822 0-1.329.599-1.329 1.59v.814c0 .99.507 1.589 1.329 1.589.637 0 1.044-.368 1.236-.89l.7.422c-.362.776-1.007 1.244-1.936 1.244zm6.188-.092h-.468c-.438 0-.668-.276-.722-.668h-.038c-.154.499-.584.76-1.168.76-.822 0-1.29-.468-1.29-1.19 0-.791.591-1.198 1.705-1.198h.722v-.338c0-.484-.261-.768-.822-.768-.468 0-.753.23-.952.545l-.5-.453c.262-.446.73-.776 1.506-.776 1.029 0 1.605.507 1.605 1.398v2.004h.422V226zm-2.158-.545c.515 0 .899-.246.899-.638v-.576h-.707c-.583 0-.868.192-.868.538v.138c0 .353.261.538.676.538zm2.979 2.081v-5.53h.837v.661h.038c.17-.476.592-.753 1.122-.753 1.006 0 1.59.776 1.59 2.089s-.584 2.089-1.59 2.089c-.53 0-.953-.284-1.122-.752h-.038v2.196h-.837zm1.743-2.166c.576 0 .96-.407.96-1.021v-.691c0-.615-.384-1.022-.96-1.022-.507 0-.906.277-.906.684v1.367c0 .407.4.683.906.683zm19.128.63h-.867v-5.361h2.304c.983 0 1.559.638 1.559 1.613 0 .976-.576 1.613-1.559 1.613h-1.437V226zm0-4.6v1.705h1.383c.438 0 .699-.238.699-.669v-.368c0-.43-.261-.668-.699-.668h-1.383zm4.648 4.6h-.837v-3.994h.837v.768h.039c.115-.407.461-.768 1.098-.768h.223v.807h-.331c-.66 0-1.029.223-1.029.637V226zm2.526-4.708c-.346 0-.5-.184-.5-.438v-.13c0-.254.154-.438.5-.438.345 0 .491.184.491.438v.13c0 .254-.146.438-.491.438zm-.423 4.708v-3.994h.837V226h-.837zm3.576.092c-1.152 0-1.812-.814-1.812-2.089s.66-2.089 1.812-2.089c.799 0 1.306.392 1.544.983l-.691.323c-.115-.369-.4-.607-.853-.607-.614 0-.929.423-.929 1.037v.714c0 .615.315 1.037.929 1.037.484 0 .768-.261.937-.661l.638.338c-.261.653-.807 1.014-1.575 1.014zm3.893 0c-1.136 0-1.835-.814-1.835-2.089s.699-2.089 1.835-2.089c1.175 0 1.774.883 1.774 1.989v.315H122.9v.131c0 .614.376 1.052 1.052 1.052.491 0 .822-.23 1.052-.599l.492.484c-.3.484-.884.806-1.629.806zm0-3.525c-.576 0-.967.43-.967 1.045v.053h1.858v-.077c0-.614-.338-1.021-.891-1.021z"/><g clip-path="url(#clip2_3669_48717)"><path fill="#4F5867" d="M130.6 223.8v.769L129 226.2l-1.6-1.631v-.769h3.2z"/><path fill="#EAECEF" d="M130.6 222.2v-.769L129 219.8l-1.6 1.631v.769h3.2z"/></g><path fill="#848E9C" d="M147.464 225.201h2.066c.054 0 .092.039.092.092v.615a.088.088 0 01-.092.092h-2.995a.088.088 0 01-.092-.092v-.645a.14.14 0 01.046-.108l2.027-2.327c.177-.2.292-.491.292-.729 0-.461-.307-.768-.768-.768-.437 0-.775.307-.775.768 0 .061-.039.092-.093.092h-.66c-.054 0-.092-.031-.092-.092 0-.876.691-1.552 1.62-1.552.968 0 1.613.622 1.613 1.559 0 .361-.207.837-.514 1.183l-1.675 1.912zm5.048.707v-.73h-2.105a.089.089 0 01-.092-.092v-.614a.32.32 0 01.023-.116l1.82-3.648a.117.117 0 01.108-.069h.691c.069 0 .1.039.069.108l-1.812 3.663h1.298v-1.144c0-.054.038-.092.092-.092h.637c.054 0 .092.038.092.092v1.144h.461c.054 0 .092.039.092.092v.584a.088.088 0 01-.092.092h-.461v.73a.088.088 0 01-.092.092h-.637a.088.088 0 01-.092-.092zm5.592.092v-2.335h-2.427V226h-.868v-5.361h.868v2.258h2.427v-2.258h.868V226h-.868zm6.015.092c-1.398 0-2.25-.975-2.25-2.772 0-1.797.852-2.773 2.25-2.773.929 0 1.551.415 1.912 1.214l-.729.399c-.184-.507-.561-.837-1.183-.837-.822 0-1.329.599-1.329 1.59v.814c0 .99.507 1.589 1.329 1.589.638 0 1.045-.368 1.237-.89l.698.422c-.36.776-1.006 1.244-1.935 1.244zm2.794-.092v-5.683h.837v2.35h.039c.169-.43.506-.753 1.121-.753.814 0 1.298.569 1.298 1.552V226h-.837v-2.435c0-.614-.238-.929-.753-.929-.438 0-.868.223-.868.684V226h-.837zm7.85 0h-.469c-.438 0-.668-.276-.722-.668h-.038c-.154.499-.584.76-1.168.76-.821 0-1.29-.468-1.29-1.19 0-.791.592-1.198 1.705-1.198h.722v-.338c0-.484-.261-.768-.822-.768-.468 0-.752.23-.952.545l-.499-.453c.261-.446.729-.776 1.505-.776 1.029 0 1.605.507 1.605 1.398v2.004h.423V226zm-2.158-.545c.514 0 .898-.246.898-.638v-.576h-.706c-.584 0-.868.192-.868.538v.138c0 .353.261.538.676.538zm3.815.545h-.837v-3.994h.837v.661h.039c.169-.43.506-.753 1.121-.753.814 0 1.298.569 1.298 1.552V226h-.837v-2.427c0-.622-.238-.937-.753-.937-.438 0-.868.223-.868.691V226zm7.12.376c0 .83-.591 1.252-2.027 1.252-1.306 0-1.813-.353-1.813-.96 0-.438.261-.676.684-.768v-.084a.61.61 0 01-.453-.615c0-.414.322-.614.706-.706v-.031c-.468-.223-.73-.645-.73-1.183 0-.814.576-1.367 1.59-1.367.269 0 .515.039.722.123v-.107c0-.354.169-.569.522-.569h.615v.676h-.814v.161c.361.238.56.622.56 1.083 0 .807-.583 1.352-1.597 1.352-.192 0-.376-.023-.522-.061-.2.069-.384.199-.384.399 0 .215.207.299.56.299h.983c.983 0 1.398.415 1.398 1.106zm-2.035-2.35c.491 0 .776-.222.776-.676v-.153c0-.453-.285-.676-.776-.676-.492 0-.776.223-.776.676v.153c0 .454.284.676.776.676zm1.252 2.442c0-.276-.185-.453-.73-.453h-1.352a.516.516 0 00-.276.461c0 .323.238.545.86.545h.522c.653 0 .976-.184.976-.553zm2.928-.376c-1.137 0-1.836-.814-1.836-2.089s.699-2.089 1.836-2.089c1.175 0 1.774.883 1.774 1.989v.315h-2.742v.131c0 .614.376 1.052 1.052 1.052.492 0 .822-.23 1.052-.599l.492.484c-.3.484-.883.806-1.628.806zm0-3.525c-.576 0-.968.43-.968 1.045v.053h1.859v-.077c0-.614-.338-1.021-.891-1.021z"/><g clip-path="url(#clip3_3669_48717)"><path fill="#4F5867" d="M192.436 223.799v.769l-1.6 1.631-1.6-1.631v-.769h3.2z"/><path fill="#EAECEF" d="M192.436 222.199v-.769l-1.6-1.631-1.6 1.631v.769h3.2z"/></g><path fill="#F6921A" d="M34.41 257.216c-1.02 4.12-5.198 6.617-9.307 5.596-4.109-1.022-6.617-5.199-5.596-9.308 1.022-4.12 5.188-6.617 9.308-5.595a7.684 7.684 0 015.596 9.307z"/><path fill="#fff" d="M30.286 254.219c.148-1.022-.624-1.567-1.691-1.941l.34-1.385-.84-.216-.34 1.351c-.227-.057-.454-.102-.67-.159l.34-1.362-.84-.215-.34 1.384c-.181-.045-.363-.079-.533-.125l-1.158-.295-.227.897s.624.147.613.147c.34.091.409.307.397.489l-.397 1.577c.023.012.057.012.09.023-.022-.011-.056-.011-.09-.023l-.556 2.214c-.046.102-.148.261-.386.204a16.34 16.34 0 01-.613-.148l-.42.965 1.1.272c.205.057.41.103.602.159l-.351 1.396.84.216.34-1.385c.227.068.454.125.67.171l-.34 1.373.84.216.351-1.396c1.442.272 2.52.158 2.974-1.135.363-1.045-.023-1.646-.772-2.044.545-.113.953-.476 1.067-1.225zm-1.93 2.701c-.26 1.044-2.02.477-2.599.341l.465-1.851c.58.137 2.407.42 2.134 1.51zm.261-2.713c-.238.954-1.702.466-2.179.352l.42-1.68c.477.114 2.01.33 1.76 1.328z"/><path fill="#EAECEF" d="M43.199 253.86v-7.147h3.164c1.178 0 1.905.727 1.905 1.843 0 1.075-.656 1.464-1.24 1.516v.061c.584.02 1.496.471 1.496 1.669 0 1.157-.789 2.058-1.843 2.058h-3.482zm1.157-6.154v2.028h1.792c.563 0 .901-.308.901-.85v-.328c0-.543-.338-.85-.9-.85h-1.793zm0 2.99v2.171h1.987c.594 0 .962-.328.962-.911v-.348c0-.584-.368-.912-.962-.912h-1.987zm6.074-3.113c-.46 0-.665-.246-.665-.583v-.175c0-.337.204-.583.665-.583.461 0 .656.246.656.583V247c0 .337-.195.583-.656.583zm-.563 6.277v-5.324h1.116v5.324h-1.116zm5.157 0h-.972c-.768 0-1.178-.43-1.178-1.157v-3.256h-.83v-.911h.451c.369 0 .492-.154.492-.523v-.932h1.003v1.455h1.116v.911H53.99v3.502h1.034v.911zm3.311.123c-1.536 0-2.416-1.085-2.416-2.785 0-1.7.88-2.785 2.416-2.785 1.065 0 1.741.522 2.059 1.31l-.922.43c-.154-.491-.532-.808-1.137-.808-.819 0-1.239.563-1.239 1.382v.952c0 .819.42 1.383 1.24 1.383.644 0 1.023-.349 1.249-.881l.85.451c-.349.87-1.076 1.351-2.1 1.351zm5.191 0c-1.485 0-2.447-1.085-2.447-2.785 0-1.7.962-2.785 2.447-2.785s2.447 1.085 2.447 2.785c0 1.7-.962 2.785-2.447 2.785zm0-.921c.758 0 1.27-.471 1.27-1.413v-.902c0-.942-.512-1.413-1.27-1.413s-1.27.471-1.27 1.413v.902c0 .942.512 1.413 1.27 1.413zm4.254-5.479c-.46 0-.665-.246-.665-.583v-.175c0-.337.205-.583.665-.583.461 0 .656.246.656.583V247c0 .337-.195.583-.656.583zm-.563 6.277v-5.324h1.116v5.324h-1.116zm3.826 0h-1.116v-5.324h1.116v.88h.051c.226-.573.676-1.003 1.496-1.003 1.085 0 1.73.757 1.73 2.068v3.379h-1.116v-3.235c0-.83-.318-1.25-1.004-1.25-.583 0-1.157.297-1.157.922v3.563z"/><path fill="#848E9C" d="M43.033 265.86v-5.36h2.204c.883 0 1.428.545 1.428 1.382 0 .799-.514 1.083-.868 1.137v.046c.384.023 1.053.353 1.053 1.244 0 .883-.592 1.551-1.383 1.551h-2.434zm.645-4.792v1.751h1.482c.507 0 .814-.269.814-.745v-.261c0-.476-.307-.745-.814-.745h-1.482zm0 2.304v1.92h1.59c.552 0 .89-.292.89-.829v-.262c0-.537-.338-.829-.89-.829h-1.59zm7.687-2.304H49.66v4.792h-.645v-4.792H47.31v-.568h4.055v.568zm2.624 4.885c-1.351 0-2.158-.953-2.158-2.742 0-1.79.807-2.803 2.158-2.803.891 0 1.506.43 1.844 1.175l-.523.314c-.215-.552-.66-.913-1.32-.913-.922 0-1.468.729-1.468 1.827v.799c0 1.098.546 1.767 1.467 1.767.684 0 1.152-.384 1.367-.968l.515.322c-.338.753-.99 1.222-1.882 1.222z"/><path fill="#0ECB81" d="M209.874 247.928v1.587h1.598c.071 0 .122.051.122.123v.727a.118.118 0 01-.122.123h-1.598v1.597a.118.118 0 01-.123.123h-.727a.119.119 0 01-.123-.123v-1.597h-1.597a.119.119 0 01-.123-.123v-.727c0-.072.051-.123.123-.123h1.597v-1.587c0-.072.052-.123.123-.123h.727c.072 0 .123.051.123.123zm3.699 5.089l2.345-6.073h-2.099v1.024a.119.119 0 01-.123.123h-.809a.118.118 0 01-.123-.123v-1.832c0-.072.051-.123.123-.123h4.096c.071 0 .123.051.123.123v.727a.462.462 0 01-.031.153l-2.314 6.052c-.021.061-.072.092-.144.092h-.942c-.092 0-.133-.051-.102-.143zm5.491.266c-.502 0-.748-.297-.748-.696v-.154c0-.399.246-.696.748-.696.501 0 .747.297.747.696v.154c0 .399-.246.696-.747.696zm4.209 0c-1.158 0-2.1-.788-2.1-2.089v-3.215c0-1.301.942-2.089 2.1-2.089 1.167 0 2.109.788 2.109 2.089v3.215c0 1.301-.942 2.089-2.109 2.089zm0-1.065c.614 0 .972-.45.972-1.096v-3.072c0-.645-.358-1.095-.972-1.095-.605 0-.963.45-.963 1.095v3.072c0 .646.358 1.096.963 1.096zm6.013.819v-.973h-2.806a.118.118 0 01-.123-.122v-.82c0-.051.01-.102.031-.153l2.427-4.864a.152.152 0 01.143-.092h.921c.093 0 .134.051.093.143l-2.417 4.884h1.731v-1.525c0-.072.051-.123.122-.123h.85c.072 0 .123.051.123.123v1.525h.615a.12.12 0 01.123.123v.779a.118.118 0 01-.123.122h-.615v.973a.118.118 0 01-.123.123h-.85a.118.118 0 01-.122-.123zm4.21-3.317c-.788 0-1.433-.502-1.433-1.403v-1.035c0-.901.645-1.392 1.433-1.392.789 0 1.434.491 1.434 1.392v1.035c0 .901-.645 1.403-1.434 1.403zm.144 3.297l3.266-6.912a.154.154 0 01.144-.092h.706c.092 0 .133.051.092.143l-3.256 6.912a.155.155 0 01-.143.092h-.717c-.092 0-.133-.051-.092-.143zm-.144-4.076c.379 0 .615-.235.615-.706v-.86c0-.471-.236-.707-.615-.707s-.604.236-.604.707v.86c0 .471.225.706.604.706zm4.557 4.342c-.788 0-1.434-.491-1.434-1.393v-1.034c0-.901.646-1.403 1.434-1.403.789 0 1.434.502 1.434 1.403v1.034c0 .902-.645 1.393-1.434 1.393zm0-.84c.379 0 .604-.235.604-.706v-.86c0-.471-.225-.707-.604-.707s-.614.236-.614.707v.86c0 .471.235.706.614.706z"/><path fill="#EAECEF" d="M204.528 265.79h-.476v-.63c-.776-.054-1.298-.415-1.675-.914l.453-.407c.331.438.715.707 1.229.776v-1.974c-1.052-.238-1.52-.668-1.52-1.459 0-.822.622-1.298 1.513-1.382v-.63h.476v.622c.691.061 1.19.361 1.559.868l-.469.353a1.568 1.568 0 00-1.098-.668v1.797l.069.015c1.06.238 1.528.661 1.528 1.467 0 .876-.614 1.444-1.589 1.536v.63zm-1.383-4.654c0 .522.3.737.914.906v-1.697c-.553.069-.914.345-.914.791zm2.366 2.527c0-.515-.277-.768-.991-.937v1.889c.607-.077.991-.43.991-.952zm4.213 1.497h-.506c-.054 0-.077-.023-.077-.077v-.814c0-.03-.016-.046-.054-.046h-2.081c-.054 0-.077-.023-.077-.077v-.437c0-.031.008-.062.023-.093l1.736-3.755a.113.113 0 01.107-.061h.53c.054 0 .077.023.054.069l-1.705 3.732v.015h1.413c.038 0 .054-.015.054-.046v-1.405c0-.054.023-.077.077-.077h.506c.054 0 .077.023.077.077v1.405c0 .031.016.046.046.046h.492c.054 0 .077.024.077.077v.453c0 .054-.023.077-.077.077h-.492c-.03 0-.046.016-.046.046v.814c0 .054-.023.077-.077.077zm3.134.092c-.822 0-1.413-.46-1.505-1.121-.008-.054.007-.077.061-.092l.468-.123c.054-.015.093.015.1.069.062.407.392.653.876.653.399 0 .66-.184.791-.53.046-.123.069-.346.069-.668 0-.307-.031-.538-.077-.684-.107-.345-.384-.522-.783-.522-.4 0-.676.23-.791.499-.023.054-.054.085-.092.085h-.469c-.054 0-.077-.031-.077-.085v-2.857c0-.053.023-.076.077-.076h2.704c.053 0 .076.023.076.076v.461c0 .054-.023.077-.076.077h-2.12c-.031 0-.046.015-.046.046v1.513h.023c.184-.23.476-.353.883-.353.668 0 1.16.315 1.329.883.076.253.115.561.115.937 0 .353-.039.645-.108.868-.184.599-.745.944-1.428.944zm3.156-.99c.323 0 .469.184.469.453v.107c0 .415-.261.983-.699 1.36h-.515c.307-.323.492-.592.576-.953-.207-.046-.299-.199-.299-.407v-.107c0-.269.146-.453.468-.453zm4.278.898h-.507c-.054 0-.077-.023-.077-.077v-.814c0-.03-.015-.046-.053-.046h-2.082c-.054 0-.077-.023-.077-.077v-.437c0-.031.008-.062.023-.093l1.736-3.755a.115.115 0 01.108-.061h.53c.053 0 .076.023.053.069l-1.705 3.732v.015h1.414c.038 0 .053-.015.053-.046v-1.405c0-.054.023-.077.077-.077h.507c.054 0 .077.023.077.077v1.405c0 .031.015.046.046.046h.491c.054 0 .077.024.077.077v.453c0 .054-.023.077-.077.077h-.491c-.031 0-.046.016-.046.046v.814c0 .054-.023.077-.077.077zm3.087.092c-.96 0-1.643-.629-1.643-1.643 0-.377.123-.784.361-1.221l1.359-2.535c.023-.038.054-.053.108-.053h.529c.062 0 .077.023.054.076l-1.206 2.228.024.015c.115-.085.299-.123.537-.123.868 0 1.528.637 1.528 1.59 0 1.021-.698 1.666-1.651 1.666zm0-.614c.645 0 .968-.507.968-1.014s-.323-1.014-.968-1.014-.967.507-.967 1.014.322 1.014.967 1.014zm5.238.522h-.507c-.054 0-.077-.023-.077-.077v-.814c0-.03-.015-.046-.053-.046h-2.082c-.054 0-.077-.023-.077-.077v-.437c0-.031.008-.062.023-.093l1.736-3.755a.115.115 0 01.108-.061h.53c.053 0 .076.023.053.069l-1.705 3.732v.015h1.414c.038 0 .053-.015.053-.046v-1.405c0-.054.023-.077.077-.077h.507c.054 0 .077.023.077.077v1.405c0 .031.015.046.046.046h.491c.054 0 .077.024.077.077v.453c0 .054-.023.077-.077.077h-.491c-.031 0-.046.016-.046.046v.814c0 .054-.023.077-.077.077zm2.089.092c-.323 0-.469-.184-.469-.445v-.1c0-.261.146-.445.469-.445.322 0 .468.184.468.445v.1c0 .261-.146.445-.468.445zm4.203-.092h-.506c-.054 0-.077-.023-.077-.077v-.814c0-.03-.016-.046-.054-.046h-2.081c-.054 0-.077-.023-.077-.077v-.437c0-.031.008-.062.023-.093l1.736-3.755a.113.113 0 01.107-.061h.53c.054 0 .077.023.054.069l-1.705 3.732v.015h1.413c.038 0 .054-.015.054-.046v-1.405c0-.054.023-.077.077-.077h.506c.054 0 .077.023.077.077v1.405c0 .031.016.046.046.046h.492c.054 0 .077.024.077.077v.453c0 .054-.023.077-.077.077h-.492c-.03 0-.046.016-.046.046v.814c0 .054-.023.077-.077.077zm2.88-.077v-4.469h-.023l-.86.606c-.023.016-.084.023-.084-.046v-.568c0-.046.015-.085.053-.108l.899-.652a.203.203 0 01.123-.046h.461c.053 0 .077.023.077.076v5.207c0 .054-.024.077-.077.077h-.492c-.054 0-.077-.023-.077-.077z"/><circle fill="#F0B90B" r="7.68" cy="298.42" cx="26.959"/><path fill="#000" d="M24.224 294.885l2.706-1.574 2.705 1.574-.995.582-1.71-.993-1.711.993-.995-.582zm5.41 1.986l-.994-.582-1.71.993-1.711-.993-.995.582v1.164l1.71.993v1.986l.995.581.995-.581v-1.986l1.71-.993v-1.164zm0 3.15v-1.164l-.994.582v1.163l.995-.581zm.707.411l-1.71.993v1.163l2.704-1.574v-3.15l-.994.582v1.986zm-.995-4.554l.995.582v1.163l.994-.581v-1.164l-.994-.582-.995.582zm-3.411 5.968v1.164l.995.581.994-.581v-1.164l-.994.582-.995-.582zm-1.71-1.825l.994.581v-1.163l-.995-.582v1.164zm1.71-4.143l.995.582.994-.582-.994-.582-.995.582zm-2.417.582l.995-.582-.995-.582-.995.582v1.164l.995.581v-1.163zm0 1.986l-.995-.582v3.15l2.706 1.574v-1.163l-1.711-.993v-1.986z"/><path fill="#EAECEF" d="M43.199 296.92v-7.147h3.164c1.178 0 1.905.727 1.905 1.843 0 1.075-.656 1.464-1.24 1.516v.061c.584.021 1.496.471 1.496 1.669 0 1.157-.789 2.058-1.843 2.058h-3.482zm1.157-6.154v2.028h1.792c.563 0 .901-.308.901-.85v-.328c0-.543-.338-.85-.9-.85h-1.793zm0 2.99v2.171h1.987c.594 0 .962-.328.962-.911v-.348c0-.584-.368-.912-.962-.912h-1.987zm9.853 3.164l-2.335-3.952-.788-1.516h-.031v5.468h-1.106v-7.147h1.29l2.335 3.953.788 1.515h.031v-5.468H55.5v7.147h-1.29zm3.05 0v-7.147h3.164c1.178 0 1.905.727 1.905 1.843 0 1.075-.656 1.464-1.24 1.516v.061c.584.021 1.496.471 1.496 1.669 0 1.157-.789 2.058-1.843 2.058h-3.482zm1.157-6.154v2.028h1.792c.563 0 .901-.308.901-.85v-.328c0-.543-.338-.85-.9-.85h-1.793zm0 2.99v2.171h1.987c.594 0 .962-.328.962-.911v-.348c0-.584-.368-.912-.962-.912h-1.987z"/><path fill="#848E9C" d="M43.033 308.92v-5.36h2.204c.883 0 1.428.545 1.428 1.382 0 .799-.514 1.083-.868 1.137v.046c.384.023 1.053.353 1.053 1.244 0 .883-.592 1.551-1.383 1.551h-2.434zm.645-4.792v1.751h1.482c.507 0 .814-.269.814-.745v-.261c0-.476-.307-.745-.814-.745h-1.482zm0 2.304v1.92h1.59c.552 0 .89-.292.89-.829v-.261c0-.538-.338-.83-.89-.83h-1.59zm7.628 2.488l-1.958-3.271-.645-1.191h-.023v4.462h-.63v-5.36h.745l1.959 3.271.645 1.191h.023v-4.462h.63v5.36h-.746zm2.174 0v-5.36h2.204c.884 0 1.429.545 1.429 1.382 0 .799-.515 1.083-.868 1.137v.046c.384.023 1.052.353 1.052 1.244 0 .883-.591 1.551-1.382 1.551H53.48zm.645-4.792v1.751h1.483c.506 0 .814-.269.814-.745v-.261c0-.476-.308-.745-.814-.745h-1.483zm0 2.304v1.92h1.59c.553 0 .89-.292.89-.829v-.261c0-.538-.337-.83-.89-.83h-1.59z"/><path fill="#0ECB81" d="M209.874 290.988v1.587h1.598c.071 0 .122.051.122.123v.727a.118.118 0 01-.122.123h-1.598v1.597a.118.118 0 01-.123.123h-.727a.119.119 0 01-.123-.123v-1.597h-1.597a.119.119 0 01-.123-.123v-.727c0-.072.051-.123.123-.123h1.597v-1.587c0-.072.052-.123.123-.123h.727c.072 0 .123.051.123.123zm4.252 4.167h2.754c.072 0 .123.051.123.123v.819a.118.118 0 01-.123.123h-3.993a.118.118 0 01-.123-.123v-.86c0-.061.02-.102.061-.143l2.704-3.103c.235-.266.389-.655.389-.973 0-.614-.41-1.024-1.024-1.024-.584 0-1.034.41-1.034 1.024 0 .082-.052.123-.123.123h-.881c-.072 0-.123-.041-.123-.123 0-1.167.922-2.068 2.161-2.068 1.29 0 2.15.829 2.15 2.079 0 .481-.276 1.116-.686 1.576l-2.232 2.55zm4.938 1.188c-.502 0-.748-.297-.748-.696v-.154c0-.399.246-.696.748-.696.501 0 .747.297.747.696v.154c0 .399-.246.696-.747.696zm4.424-4.997c1.28 0 1.986.891 1.986 2.488 0 1.618-.768 2.509-2.191 2.509-.666 0-1.208-.194-1.587-.573-.308-.308-.482-.748-.553-1.332-.011-.081.041-.133.123-.133h.89c.082 0 .123.062.134.133.092.605.389.85.993.85.758 0 1.055-.399 1.055-1.454 0-1.044-.318-1.485-1.014-1.485-.471 0-.799.164-.942.512-.041.082-.082.134-.154.134h-.809a.119.119 0 01-.123-.123v-3.676c0-.072.051-.123.123-.123h3.728c.071 0 .122.051.122.123v.757a.118.118 0 01-.122.123h-2.765v1.598c.266-.215.645-.328 1.106-.328zm5.46 0c1.28 0 1.986.891 1.986 2.488 0 1.618-.768 2.509-2.191 2.509-.666 0-1.208-.194-1.587-.573-.308-.308-.482-.748-.553-1.332-.011-.081.041-.133.123-.133h.89c.082 0 .123.062.134.133.092.605.389.85.993.85.758 0 1.055-.399 1.055-1.454 0-1.044-.318-1.485-1.014-1.485-.471 0-.799.164-.942.512-.041.082-.082.134-.154.134h-.809a.119.119 0 01-.123-.123v-3.676c0-.072.051-.123.123-.123h3.728c.071 0 .122.051.122.123v.757a.118.118 0 01-.122.123h-2.765v1.598c.266-.215.645-.328 1.106-.328zm4.548 1.434c-.788 0-1.433-.502-1.433-1.403v-1.035c0-.901.645-1.392 1.433-1.392.789 0 1.434.491 1.434 1.392v1.035c0 .901-.645 1.403-1.434 1.403zm.144 3.297l3.266-6.912a.154.154 0 01.144-.092h.706c.092 0 .133.051.092.143l-3.256 6.912a.155.155 0 01-.143.092h-.717c-.092 0-.133-.051-.092-.143zm-.144-4.076c.379 0 .615-.235.615-.706v-.86c0-.471-.236-.707-.615-.707s-.604.236-.604.707v.86c0 .471.225.706.604.706zm4.557 4.342c-.788 0-1.434-.491-1.434-1.393v-1.034c0-.901.646-1.403 1.434-1.403.789 0 1.434.502 1.434 1.403v1.034c0 .902-.645 1.393-1.434 1.393zm0-.84c.379 0 .604-.235.604-.706v-.86c0-.471-.225-.707-.604-.707s-.614.236-.614.707v.86c0 .471.235.706.614.706z"/><path fill="#EAECEF" d="M219.258 308.85h-.476v-.63c-.776-.054-1.298-.415-1.675-.914l.453-.407c.331.438.715.707 1.229.776v-1.974c-1.052-.238-1.52-.668-1.52-1.459 0-.822.622-1.298 1.513-1.382v-.63h.476v.622c.691.061 1.19.361 1.559.868l-.469.353a1.568 1.568 0 00-1.098-.668v1.797l.069.015c1.06.238 1.528.661 1.528 1.467 0 .876-.614 1.444-1.589 1.536v.63zm-1.383-4.654c0 .522.3.737.914.906v-1.697c-.553.069-.914.345-.914.791zm2.366 2.527c0-.515-.277-.768-.991-.937v1.889c.607-.077.991-.43.991-.952zm3.123 1.589c-.845 0-1.482-.46-1.598-1.144-.007-.046.016-.077.07-.092l.483-.123c.046-.008.077 0 .093.054.138.468.46.683.952.683.568 0 .921-.391.921-.944 0-.607-.384-.999-.983-.999h-.238c-.053 0-.084-.03-.084-.084v-.446c0-.053.031-.084.084-.084h.231c.537 0 .891-.346.891-.899 0-.499-.331-.852-.861-.852-.453 0-.706.223-.852.66-.015.046-.046.069-.092.062l-.476-.123c-.054-.016-.069-.039-.062-.092.092-.638.684-1.122 1.506-1.122.936 0 1.52.584 1.52 1.452 0 .491-.223.883-.668 1.16v.015c.399.154.768.645.768 1.329 0 .937-.668 1.589-1.605 1.589zm3.97-.169v-4.469h-.023l-.86.606c-.023.016-.084.023-.084-.046v-.568c0-.046.015-.085.053-.108l.899-.652a.203.203 0 01.123-.046h.461c.053 0 .077.023.077.076v5.207c0 .054-.024.077-.077.077h-.492c-.054 0-.077-.023-.077-.077zm3.963.077h-.522c-.061 0-.069-.023-.046-.084l1.828-4.631v-.031h-1.636c-.031 0-.046.015-.046.046v.668c0 .054-.023.085-.077.085h-.476c-.054 0-.077-.031-.077-.085v-1.252c0-.053.023-.076.077-.076h2.864c.054 0 .077.023.077.076v.492c0 .023 0 .046-.015.077l-1.843 4.646c-.023.046-.054.069-.108.069zm3.571.092c-.322 0-.468-.184-.468-.445v-.1c0-.261.146-.445.468-.445.323 0 .469.184.469.445v.1c0 .261-.146.445-.469.445zm3.129 0c-.96 0-1.644-.629-1.644-1.643 0-.376.123-.784.361-1.221l1.36-2.535c.023-.038.053-.053.107-.053h.53c.061 0 .077.023.054.076l-1.206 2.228.023.015c.115-.085.3-.123.538-.123.867 0 1.528.637 1.528 1.59 0 1.021-.699 1.666-1.651 1.666zm0-.614c.645 0 .967-.507.967-1.014s-.322-1.014-.967-1.014-.968.507-.968 1.014.323 1.014.968 1.014z"/><circle fill="#687EE3" r="7.68" cy="341.48" cx="26.959"/><path fill="#D2D8EC" d="M26.959 344.196v2.675l3.292-4.622-3.292 1.947z"/><path fill="#C4C8D8" d="M26.959 340.069v3.443l3.292-1.948-3.292-1.495z"/><path fill="#D0D6EA" d="M26.959 336.104v3.965l3.292 1.495-3.292-5.46z"/><path fill="#DEE2F6" d="M26.958 344.196v2.675l-3.292-4.622 3.292 1.947z"/><path fill="#D2D8EC" d="M26.958 340.069v3.443l-3.292-1.948 3.292-1.495z"/><path fill="#DEE2F6" d="M26.958 336.104v3.965l-3.292 1.495 3.292-5.46z"/><path fill="#EAECEF" d="M47.776 339.98H43.2v-7.147h4.577v1.024h-3.42v1.987h3.103v1.024h-3.103v2.088h3.42v1.024zm3.858 0h-.972c-.768 0-1.178-.43-1.178-1.157v-3.256h-.83v-.911h.451c.369 0 .492-.154.492-.523v-.931H50.6v1.454h1.116v.911H50.6v3.502h1.034v.911zm1.293 0v-7.577h1.116v3.133h.051c.226-.573.676-1.003 1.495-1.003 1.086 0 1.731.758 1.731 2.068v3.379h-1.116v-3.246c0-.819-.318-1.239-1.004-1.239-.583 0-1.157.297-1.157.912v3.573h-1.116zm8.029.123c-1.516 0-2.447-1.085-2.447-2.785 0-1.7.931-2.785 2.447-2.785 1.567 0 2.365 1.177 2.365 2.652v.42h-3.655v.174c0 .819.502 1.403 1.403 1.403.655 0 1.095-.307 1.403-.799l.655.645c-.4.645-1.178 1.075-2.171 1.075zm0-4.7c-.768 0-1.29.574-1.29 1.393v.072h2.478v-.103c0-.819-.45-1.362-1.188-1.362zm4.717 4.577h-1.116v-5.324h1.116v1.024h.051c.154-.543.615-1.024 1.465-1.024h.297v1.075h-.44c-.881 0-1.373.297-1.373.85v3.399zm4.843.123c-1.516 0-2.447-1.085-2.447-2.785 0-1.7.931-2.785 2.447-2.785 1.567 0 2.365 1.177 2.365 2.652v.42h-3.655v.174c0 .819.502 1.403 1.403 1.403.655 0 1.095-.307 1.403-.799l.655.645c-.4.645-1.178 1.075-2.171 1.075zm0-4.7c-.768 0-1.29.574-1.29 1.393v.072h2.478v-.103c0-.819-.45-1.362-1.188-1.362zm6.827 4.577v-.88h-.041c-.195.522-.615 1.003-1.495 1.003-1.096 0-1.741-.747-1.741-2.058v-3.389h1.116v3.246c0 .809.338 1.239 1.024 1.239.573 0 1.137-.297 1.137-.922v-3.563h1.116v5.324h-1.116zm3.83 0h-1.116v-5.324h1.116v.88h.051c.215-.553.615-1.003 1.424-1.003.717 0 1.32.348 1.577 1.085h.03c.195-.594.748-1.085 1.608-1.085 1.055 0 1.68.758 1.68 2.068v3.379h-1.117v-3.246c0-.819-.307-1.239-.983-1.239-.563 0-1.085.297-1.085.912v3.573h-1.116v-3.246c0-.829-.318-1.239-.973-1.239-.553 0-1.096.297-1.096.912v3.573z"/><path fill="#848E9C" d="M46.304 351.98h-3.271v-5.36h3.271v.568h-2.626v1.797h2.473v.569h-2.473v1.858h2.626v.568zm4.716-4.792h-1.705v4.792h-.645v-4.792h-1.705v-.568h4.055v.568zm4.241 4.792v-2.426h-2.71v2.426h-.646v-5.36h.645v2.365h2.711v-2.365h.645v5.36h-.645z"/><path fill="#0ECB81" d="M209.874 334.048v1.587h1.598c.071 0 .122.051.122.123v.727a.118.118 0 01-.122.123h-1.598v1.597a.118.118 0 01-.123.123h-.727a.119.119 0 01-.123-.123v-1.597h-1.597a.119.119 0 01-.123-.123v-.727c0-.072.051-.123.123-.123h1.597v-1.587c0-.072.052-.123.123-.123h.727c.072 0 .123.051.123.123zm5.522 5.109v-.972h-2.806a.119.119 0 01-.123-.123v-.819a.4.4 0 01.031-.154l2.427-4.864a.152.152 0 01.143-.092h.921c.093 0 .134.051.093.143l-2.417 4.885h1.731v-1.526c0-.072.051-.123.122-.123h.85c.072 0 .123.051.123.123v1.526h.615c.071 0 .123.051.123.122v.779a.12.12 0 01-.123.123h-.615v.972a.118.118 0 01-.123.123h-.85a.118.118 0 01-.122-.123zm3.668.246c-.502 0-.748-.297-.748-.696v-.154c0-.399.246-.696.748-.696.501 0 .747.297.747.696v.154c0 .399-.246.696-.747.696zm3.492-1.188h2.754c.072 0 .123.052.123.123v.819a.118.118 0 01-.123.123h-3.993a.118.118 0 01-.123-.123v-.86c0-.061.02-.102.061-.143l2.704-3.103c.235-.266.389-.655.389-.973 0-.614-.41-1.024-1.024-1.024-.584 0-1.034.41-1.034 1.024 0 .082-.052.123-.123.123h-.881c-.072 0-.123-.041-.123-.123 0-1.167.922-2.068 2.161-2.068 1.29 0 2.15.829 2.15 2.079 0 .481-.276 1.116-.686 1.577l-2.232 2.549zm6.177 1.127c-1.25 0-2.243-.799-2.243-2.12 0-.87.492-1.403 1.004-1.71a1.78 1.78 0 01-.881-1.567c0-1.218.932-2.017 2.12-2.017 1.187 0 2.13.799 2.13 2.017 0 .768-.41 1.28-.881 1.567.512.307 1.003.84 1.003 1.71 0 1.321-1.003 2.12-2.252 2.12zm0-4.322c.594 0 1.024-.44 1.024-1.044 0-.594-.43-1.055-1.024-1.055-.594 0-1.014.461-1.014 1.055 0 .604.42 1.044 1.014 1.044zm0 3.318a1.12 1.12 0 001.126-1.136c0-.635-.451-1.147-1.126-1.147-.676 0-1.127.512-1.127 1.147a1.12 1.12 0 001.127 1.136zm4.763-2.498c-.788 0-1.433-.502-1.433-1.403v-1.034c0-.902.645-1.393 1.433-1.393.789 0 1.434.491 1.434 1.393v1.034c0 .901-.645 1.403-1.434 1.403zm.144 3.297l3.266-6.912a.154.154 0 01.144-.092h.706c.092 0 .133.051.092.143l-3.256 6.912a.154.154 0 01-.143.092h-.717c-.092 0-.133-.051-.092-.143zm-.144-4.076c.379 0 .615-.235.615-.706v-.86c0-.471-.236-.707-.615-.707s-.604.236-.604.707v.86c0 .471.225.706.604.706zm4.557 4.342c-.788 0-1.434-.491-1.434-1.392v-1.035c0-.901.646-1.403 1.434-1.403.789 0 1.434.502 1.434 1.403v1.035c0 .901-.645 1.392-1.434 1.392zm0-.84c.379 0 .604-.235.604-.706v-.86c0-.471-.225-.707-.604-.707s-.614.236-.614.707v.86c0 .471.235.706.614.706z"/><path fill="#EAECEF" d="M208.69 351.91h-.476v-.63c-.776-.053-1.298-.414-1.674-.914l.453-.407c.33.438.714.707 1.229.776v-1.974c-1.052-.238-1.521-.668-1.521-1.459 0-.822.622-1.298 1.513-1.382v-.63h.476v.622c.691.061 1.191.361 1.559.868l-.468.353a1.572 1.572 0 00-1.098-.668v1.797l.069.015c1.06.238 1.528.661 1.528 1.467 0 .876-.614 1.444-1.59 1.536v.63zm-1.382-4.654c0 .522.299.737.914.906v-1.697c-.553.069-.914.346-.914.791zm2.365 2.527c0-.515-.276-.768-.99-.937v1.889c.606-.077.99-.43.99-.952zm4.575 1.497h-2.88c-.054 0-.077-.023-.077-.077v-.414c0-.039.015-.077.039-.108l1.935-2.465c.253-.33.384-.637.384-.937 0-.499-.338-.845-.853-.845-.491 0-.798.261-.875.791-.008.054-.039.069-.085.062l-.483-.1c-.047-.016-.07-.054-.062-.1.115-.684.63-1.267 1.521-1.267.921 0 1.513.607 1.513 1.459 0 .422-.177.852-.523 1.29l-1.658 2.082v.015h2.104c.054 0 .077.023.077.077v.46c0 .054-.023.077-.077.077zm1.766-.898c.323 0 .469.184.469.453v.107c0 .415-.261.983-.699 1.36h-.515c.307-.323.492-.592.576-.953-.207-.046-.299-.199-.299-.407v-.107c0-.269.146-.453.468-.453zm3.187.99c-.844 0-1.482-.46-1.597-1.144-.008-.046.015-.077.069-.092l.484-.123c.046-.008.077 0 .092.054.138.468.461.683.952.683.569 0 .922-.391.922-.944 0-.607-.384-.999-.983-.999h-.238c-.054 0-.085-.03-.085-.084v-.446c0-.053.031-.084.085-.084h.23c.538 0 .891-.346.891-.899 0-.499-.33-.852-.86-.852-.453 0-.707.223-.852.66-.016.046-.047.069-.093.062l-.476-.123c-.054-.015-.069-.038-.061-.092.092-.638.683-1.122 1.505-1.122.937 0 1.521.584 1.521 1.452 0 .492-.223.883-.668 1.16v.015c.399.154.768.645.768 1.329 0 .937-.669 1.589-1.606 1.589zm4.178 0c-.983 0-1.659-.637-1.659-1.582 0-.591.308-1.083.761-1.321v-.023c-.361-.192-.638-.614-.638-1.136 0-.83.607-1.483 1.536-1.483.945 0 1.536.653 1.536 1.483 0 .522-.276.944-.637 1.136v.023c.453.238.76.73.76 1.321 0 .945-.676 1.582-1.659 1.582zm-.852-4.078c0 .576.422.861.852.861.423 0 .853-.292.853-.861 0-.568-.423-.852-.853-.852-.422 0-.852.292-.852.852zm.852 3.464c.653 0 .983-.499.983-.991 0-.499-.322-.99-.983-.99-.66 0-.983.491-.983.983 0 .499.33.998.983.998zm4.147.614c-.844 0-1.482-.46-1.597-1.144-.008-.046.015-.077.069-.092l.484-.123c.046-.008.077 0 .092.054.138.468.461.683.952.683.569 0 .922-.391.922-.944 0-.607-.384-.999-.983-.999h-.238c-.054 0-.085-.03-.085-.084v-.446c0-.053.031-.084.085-.084h.23c.538 0 .891-.346.891-.899 0-.499-.33-.852-.86-.852-.453 0-.707.223-.852.66-.016.046-.047.069-.093.062l-.476-.123c-.054-.015-.069-.038-.061-.092.092-.638.683-1.122 1.505-1.122.937 0 1.521.584 1.521 1.452 0 .492-.223.883-.668 1.16v.015c.399.154.768.645.768 1.329 0 .937-.669 1.589-1.606 1.589zm3.18 0c-.323 0-.469-.184-.469-.445v-.1c0-.261.146-.445.469-.445.322 0 .468.184.468.445v.1c0 .261-.146.445-.468.445zm2.921-.169v-4.469h-.023l-.86.606c-.023.016-.085.023-.085-.046v-.568c0-.046.016-.084.054-.107l.899-.653a.2.2 0 01.122-.046h.461c.054 0 .077.023.077.076v5.207c0 .054-.023.077-.077.077h-.491c-.054 0-.077-.023-.077-.077zm4.37.169c-.96 0-1.644-.629-1.644-1.643 0-.376.123-.783.361-1.221l1.36-2.535c.023-.038.053-.053.107-.053h.53c.061 0 .077.023.054.076l-1.206 2.228.023.015c.115-.084.3-.123.538-.123.867 0 1.528.638 1.528 1.59 0 1.021-.699 1.666-1.651 1.666zm0-.614c.645 0 .967-.507.967-1.014s-.322-1.013-.967-1.013-.968.506-.968 1.013c0 .507.323 1.014.968 1.014z"/><g clip-path="url(#clip4_3669_48717)"><mask height="17" width="16" y="376" x="19" maskUnits="userSpaceOnUse" style="mask-type:alpha" id="b"><path fill="#fff" d="M19.281 376.861h15.36v15.36h-15.36v-15.36z" clip-rule="evenodd" fill-rule="evenodd"/></mask><g mask="url(#b)" clip-rule="evenodd" fill-rule="evenodd"><path fill="#0090FF" d="M26.96 392.221c-4.225 0-7.68-3.456-7.68-7.719.038-4.224 3.455-7.68 7.718-7.641 4.224.038 7.641 3.456 7.641 7.756-.038 4.186-3.456 7.604-7.68 7.604z"/><path fill="#fff" d="M27.69 383.619l-.231 1.229 2.189.307-.154.576-2.15-.307c-.154.499-.23 1.037-.423 1.498-.192.537-.384 1.075-.614 1.574-.307.653-.845 1.114-1.574 1.229-.423.077-.884.038-1.23-.231-.114-.076-.23-.23-.23-.345 0-.154.077-.346.192-.423.077-.038.27 0 .384.039.116.115.23.269.308.422.23.307.537.346.844.115.346-.307.538-.729.653-1.152.23-.921.461-1.804.653-2.726v-.154l-2.035-.307.077-.576 2.112.307.268-1.19-2.188-.346.076-.614 2.266.307c.077-.23.115-.422.192-.614.192-.691.384-1.383.845-1.997.46-.614.998-.998 1.805-.96.345 0 .69.115.921.384.039.038.115.115.115.192 0 .154 0 .346-.115.461-.153.115-.345.077-.499-.077-.115-.115-.192-.23-.307-.346-.23-.307-.576-.345-.845-.076-.192.192-.384.46-.5.729-.268.807-.46 1.651-.729 2.496l2.112.307-.153.576-2.036-.307"/></g></g><path fill="#EAECEF" d="M44.356 383.041H43.2v-7.148h4.465v1.024h-3.308v1.987h2.939v1.024h-2.939v3.113zm5.164-6.278c-.46 0-.665-.245-.665-.583v-.174c0-.338.205-.584.665-.584.461 0 .656.246.656.584v.174c0 .338-.195.583-.656.583zm-.563 6.278v-5.325h1.116v5.325h-1.116zm4.563 0h-.716c-.758 0-1.137-.42-1.137-1.106v-6.472h1.116v6.666h.737v.912zm3.156.122c-1.516 0-2.447-1.085-2.447-2.785 0-1.7.931-2.785 2.447-2.785 1.567 0 2.365 1.177 2.365 2.652v.42h-3.655v.174c0 .819.502 1.403 1.403 1.403.655 0 1.095-.307 1.403-.799l.655.645c-.4.645-1.178 1.075-2.171 1.075zm0-4.7c-.768 0-1.29.574-1.29 1.393v.072h2.478v-.103c0-.819-.45-1.362-1.188-1.362zm5.66 4.7c-1.537 0-2.417-1.085-2.417-2.785 0-1.7.88-2.785 2.416-2.785 1.065 0 1.741.522 2.059 1.311l-.922.43c-.154-.492-.532-.809-1.137-.809-.819 0-1.239.563-1.239 1.382v.952c0 .82.42 1.383 1.24 1.383.644 0 1.023-.348 1.249-.881l.85.451c-.349.87-1.076 1.351-2.1 1.351zm5.19 0c-1.485 0-2.447-1.085-2.447-2.785 0-1.7.962-2.785 2.447-2.785s2.447 1.085 2.447 2.785c0 1.7-.962 2.785-2.447 2.785zm0-.921c.758 0 1.27-.471 1.27-1.413v-.901c0-.943-.512-1.414-1.27-1.414s-1.27.471-1.27 1.414v.901c0 .942.512 1.413 1.27 1.413zm4.254-5.479c-.46 0-.665-.245-.665-.583v-.174c0-.338.205-.584.665-.584.461 0 .656.246.656.584v.174c0 .338-.195.583-.656.583zm-.563 6.278v-5.325h1.116v5.325h-1.116zm3.826 0h-1.116v-5.325h1.116v.88h.051c.226-.573.676-1.003 1.496-1.003 1.085 0 1.73.758 1.73 2.068v3.38h-1.116v-3.236c0-.83-.318-1.25-1.004-1.25-.583 0-1.157.297-1.157.922v3.564z"/><path fill="#848E9C" d="M43.678 395.041h-.645v-5.361h3.194v.568h-2.55v1.797h2.328v.569h-2.327v2.427zm5.542 0h-2.15v-.538h.752v-4.286h-.753v-.537h2.15v.537h-.752v4.286h.753v.538zm4.104 0h-2.926v-5.361h.645v4.792h2.28v.569z"/><path fill="#0ECB81" d="M204.414 377.108v1.587h1.598c.071 0 .122.051.122.123v.727a.118.118 0 01-.122.123h-1.598v1.597a.118.118 0 01-.123.123h-.727a.119.119 0 01-.123-.123v-1.597h-1.597a.119.119 0 01-.123-.123v-.727c0-.072.051-.123.123-.123h1.597v-1.587c0-.072.052-.123.123-.123h.727c.072 0 .123.051.123.123zm4.887-2.038h.932c.071 0 .122.051.122.123v7.024a.118.118 0 01-.122.123h-.891a.118.118 0 01-.123-.123v-5.867l-1.27 1.116c-.082.072-.154.031-.154-.072v-1.003c0-.062.031-.113.072-.154l1.29-1.106a.186.186 0 01.144-.061zm5.46 0h.932c.071 0 .122.051.122.123v7.024a.118.118 0 01-.122.123h-.891a.118.118 0 01-.123-.123v-5.867l-1.27 1.116c-.082.072-.154.031-.154-.072v-1.003c0-.062.031-.113.072-.154l1.29-1.106a.186.186 0 01.144-.061zm4.303 7.393c-.502 0-.748-.297-.748-.696v-.154c0-.399.246-.696.748-.696.501 0 .747.297.747.696v.154c0 .399-.246.696-.747.696zm4.209 0c-1.158 0-2.1-.788-2.1-2.089v-3.215c0-1.301.942-2.089 2.1-2.089 1.167 0 2.109.788 2.109 2.089v3.215c0 1.301-.942 2.089-2.109 2.089zm0-1.065c.614 0 .972-.45.972-1.095v-3.072c0-.646-.358-1.096-.972-1.096-.605 0-.963.45-.963 1.096v3.072c0 .645.358 1.095.963 1.095zm4.743-.123h2.754c.072 0 .123.052.123.123v.819a.118.118 0 01-.123.123h-3.993a.118.118 0 01-.123-.123v-.86c0-.061.02-.102.061-.143l2.704-3.103c.235-.266.389-.655.389-.973 0-.614-.41-1.024-1.024-1.024-.584 0-1.034.41-1.034 1.024 0 .082-.052.123-.123.123h-.881c-.072 0-.123-.041-.123-.123 0-1.167.922-2.068 2.161-2.068 1.29 0 2.15.829 2.15 2.079 0 .481-.276 1.116-.686 1.577l-2.232 2.549zm5.48-2.375c-.788 0-1.433-.502-1.433-1.403v-1.034c0-.902.645-1.393 1.433-1.393.789 0 1.434.491 1.434 1.393v1.034c0 .901-.645 1.403-1.434 1.403zm.144 3.297l3.266-6.912a.156.156 0 01.144-.092h.706c.092 0 .133.051.092.143l-3.256 6.912a.154.154 0 01-.143.092h-.717c-.092 0-.133-.051-.092-.143zm-.144-4.076c.379 0 .615-.235.615-.706v-.86c0-.471-.236-.707-.615-.707s-.604.236-.604.707v.86c0 .471.225.706.604.706zm4.557 4.342c-.788 0-1.434-.491-1.434-1.392v-1.035c0-.901.646-1.403 1.434-1.403.789 0 1.434.502 1.434 1.403v1.035c0 .901-.645 1.392-1.434 1.392zm0-.839c.379 0 .604-.236.604-.707v-.86c0-.471-.225-.707-.604-.707s-.614.236-.614.707v.86c0 .471.235.707.614.707z"/><path fill="#EAECEF" d="M223.42 394.97h-.476v-.63c-.776-.053-1.298-.414-1.674-.914l.453-.407c.33.438.714.707 1.229.776v-1.974c-1.052-.238-1.521-.668-1.521-1.459 0-.822.622-1.298 1.513-1.382v-.63h.476v.622c.691.061 1.191.361 1.559.868l-.468.353a1.572 1.572 0 00-1.098-.668v1.797l.069.015c1.06.239 1.528.661 1.528 1.467 0 .876-.614 1.444-1.59 1.536v.63zm-1.382-4.654c0 .522.299.737.914.906v-1.697c-.553.069-.914.346-.914.791zm2.365 2.527c0-.515-.276-.768-.99-.937v1.889c.606-.077.99-.43.99-.952zm2.732 1.497h-.523c-.061 0-.069-.023-.046-.084l1.828-4.631v-.031h-1.636c-.03 0-.046.015-.046.046v.668c0 .054-.023.085-.076.085h-.477c-.053 0-.076-.031-.076-.085v-1.252c0-.053.023-.076.076-.076h2.865c.054 0 .077.023.077.076v.492c0 .023 0 .046-.016.077l-1.843 4.646c-.023.046-.054.069-.107.069zm3.571.092c-.323 0-.469-.184-.469-.445v-.1c0-.261.146-.445.469-.445.322 0 .468.184.468.445v.1c0 .261-.146.445-.468.445zm3.128 0c-.76 0-1.244-.337-1.467-1.021-.084-.261-.123-.845-.123-1.751 0-.906.039-1.49.123-1.751.223-.684.707-1.021 1.467-1.021.761 0 1.244.337 1.467 1.021.085.261.123.845.123 1.751 0 .906-.038 1.49-.123 1.751-.223.684-.706 1.021-1.467 1.021zm0-.614c.423 0 .707-.177.814-.538.054-.176.085-.714.085-1.62 0-.906-.023-1.444-.085-1.62-.123-.354-.391-.538-.814-.538-.422 0-.706.177-.814.538-.054.176-.084.714-.084 1.62 0 .906.023 1.444.084 1.62.123.354.392.538.814.538zm4.163.614c-.96 0-1.644-.629-1.644-1.643 0-.376.123-.783.361-1.221l1.36-2.535c.023-.038.053-.053.107-.053h.53c.061 0 .077.023.054.076l-1.206 2.228.023.015c.115-.084.3-.123.538-.123.867 0 1.528.638 1.528 1.59 0 1.021-.699 1.666-1.651 1.666zm0-.614c.645 0 .967-.507.967-1.014s-.322-1.013-.967-1.013-.968.506-.968 1.013c0 .507.323 1.014.968 1.014z"/><path fill="url(#paint1_linear_3669_48717)" d="M32.39 433.031a7.68 7.68 0 11-10.861-10.862 7.68 7.68 0 0110.86 10.862z"/><path fill="#222" d="M22.77 425.439l1.193-1.198a.186.186 0 01.132-.055h6.843c.235 0 .352.283.187.449l-1.194 1.198a.185.185 0 01-.132.054h-6.844a.263.263 0 01-.186-.448zm8.354 2.552l-1.194-1.198a.186.186 0 00-.131-.055h-6.844a.263.263 0 00-.186.449l1.194 1.198a.186.186 0 00.131.055h6.844a.263.263 0 00.186-.449zm-8.355 2.599l1.194-1.199a.189.189 0 01.131-.054h6.844c.234 0 .351.283.186.448l-1.194 1.199a.185.185 0 01-.131.054h-6.844a.263.263 0 01-.186-.448z"/><path fill="#EAECEF" d="M45.34 426.223c-1.199 0-2.018-.471-2.612-1.208l.799-.747c.501.614 1.095.931 1.874.931.911 0 1.382-.45 1.382-1.136 0-.553-.287-.871-1.116-1.034l-.635-.113c-1.382-.256-2.089-.901-2.089-2.038 0-1.27.983-2.048 2.499-2.048 1.075 0 1.863.389 2.416 1.096l-.809.717c-.368-.482-.88-.789-1.669-.789-.82 0-1.29.338-1.29.963 0 .594.368.85 1.136 1.003l.635.133c1.424.277 2.069.912 2.069 2.048 0 1.332-.952 2.222-2.59 2.222zm5.986 0c-1.485 0-2.447-1.085-2.447-2.785 0-1.7.962-2.785 2.447-2.785s2.447 1.085 2.447 2.785c0 1.7-.962 2.785-2.447 2.785zm0-.921c.758 0 1.27-.471 1.27-1.413v-.901c0-.942-.512-1.413-1.27-1.413s-1.27.471-1.27 1.413v.901c0 .942.512 1.413 1.27 1.413zm5.544.799h-.716c-.758 0-1.137-.42-1.137-1.106v-6.472h1.116v6.666h.737v.912zm5.593 0h-.624c-.584 0-.891-.369-.963-.891h-.051c-.205.665-.779 1.013-1.557 1.013-1.095 0-1.72-.624-1.72-1.587 0-1.054.788-1.597 2.273-1.597h.963v-.451c0-.645-.348-1.024-1.096-1.024-.625 0-1.003.307-1.27.727l-.665-.604c.348-.594.973-1.034 2.007-1.034 1.372 0 2.14.676 2.14 1.864v2.672h.563v.912zm-2.877-.727c.686 0 1.198-.328 1.198-.85v-.768h-.942c-.779 0-1.157.256-1.157.716v.185c0 .471.348.717.9.717zm5.087.727h-1.116v-5.325h1.116v.88h.051c.226-.573.676-1.003 1.495-1.003 1.086 0 1.731.758 1.731 2.068v3.38h-1.116v-3.236c0-.83-.318-1.25-1.004-1.25-.583 0-1.157.297-1.157.922v3.564zm9.35 0H73.4c-.584 0-.891-.369-.963-.891h-.051c-.205.665-.779 1.013-1.557 1.013-1.095 0-1.72-.624-1.72-1.587 0-1.054.788-1.597 2.273-1.597h.963v-.451c0-.645-.348-1.024-1.096-1.024-.624 0-1.003.307-1.27.727l-.665-.604c.348-.594.973-1.034 2.007-1.034 1.372 0 2.14.676 2.14 1.864v2.672h.563v.912zm-2.877-.727c.686 0 1.198-.328 1.198-.85v-.768h-.942c-.778 0-1.157.256-1.157.716v.185c0 .471.348.717.9.717z"/><path fill="#848E9C" d="M44.538 438.193c-.86 0-1.467-.354-1.897-.937l.476-.4c.376.5.822.768 1.444.768.768 0 1.183-.399 1.183-1.013 0-.507-.285-.761-.991-.922l-.438-.1c-.975-.222-1.513-.653-1.513-1.474 0-.953.722-1.467 1.774-1.467.807 0 1.375.307 1.774.875l-.483.354c-.292-.407-.7-.661-1.321-.661-.684 0-1.106.3-1.106.876 0 .507.33.737 1.006.891l.438.099c1.044.238 1.497.699 1.497 1.498 0 .983-.691 1.613-1.843 1.613zm4.962 0c-1.383 0-2.274-.976-2.274-2.773 0-1.797.891-2.772 2.274-2.772 1.382 0 2.273.975 2.273 2.772 0 1.797-.891 2.773-2.273 2.773zm0-.576c.929 0 1.582-.691 1.582-1.751v-.891c0-1.06-.653-1.751-1.582-1.751-.93 0-1.583.691-1.583 1.751v.891c0 1.06.653 1.751 1.583 1.751zm6.359.484h-2.926v-5.361h.645v4.792h2.28v.569z"/><path fill="#0ECB81" d="M204.414 420.168v1.587h1.598c.071 0 .122.051.122.123v.727a.118.118 0 01-.122.123h-1.598v1.597a.118.118 0 01-.123.123h-.727a.119.119 0 01-.123-.123v-1.597h-1.597a.118.118 0 01-.123-.123v-.727c0-.072.051-.123.123-.123h1.597v-1.587c0-.072.052-.123.123-.123h.727c.072 0 .123.051.123.123zm4.887-2.038h.932c.071 0 .122.051.122.123v7.025a.118.118 0 01-.122.122h-.891a.118.118 0 01-.123-.122v-5.868l-1.27 1.116c-.082.072-.154.031-.154-.072v-1.003a.22.22 0 01.072-.154l1.29-1.106a.186.186 0 01.144-.061zm5.46 0h.932c.071 0 .122.051.122.123v7.025a.118.118 0 01-.122.122h-.891a.118.118 0 01-.123-.122v-5.868l-1.27 1.116c-.082.072-.154.031-.154-.072v-1.003a.22.22 0 01.072-.154l1.29-1.106a.186.186 0 01.144-.061zm4.303 7.393c-.502 0-.748-.297-.748-.696v-.154c0-.399.246-.696.748-.696.501 0 .747.297.747.696v.154c0 .399-.246.696-.747.696zm2.939-.266l2.345-6.072h-2.099v1.024a.12.12 0 01-.123.123h-.809a.119.119 0 01-.123-.123v-1.833c0-.072.051-.123.123-.123h4.096c.071 0 .123.051.123.123v.727a.462.462 0 01-.031.153l-2.314 6.052c-.021.062-.072.092-.144.092h-.942c-.092 0-.133-.051-.102-.143zm6.975-4.065c1.055 0 1.915.839 1.915 2.109 0 1.342-.88 2.222-2.15 2.222s-2.161-.829-2.161-2.181c0-.502.133-.962.512-1.741l1.608-3.256a.155.155 0 01.143-.092h.932c.092 0 .133.051.092.143l-1.444 2.888a1.68 1.68 0 01.553-.092zm-.245 3.328c.624 0 1.054-.451 1.054-1.198 0-.676-.399-1.188-1.054-1.188-.615 0-1.045.45-1.045 1.188 0 .747.43 1.198 1.045 1.198zm4.763-2.56c-.788 0-1.433-.502-1.433-1.403v-1.034c0-.901.645-1.393 1.433-1.393.789 0 1.434.492 1.434 1.393v1.034c0 .901-.645 1.403-1.434 1.403zm.144 3.297l3.266-6.912a.156.156 0 01.144-.092h.706c.092 0 .133.051.092.143l-3.256 6.912a.154.154 0 01-.143.092h-.717c-.092 0-.133-.051-.092-.143zm-.144-4.075c.379 0 .615-.236.615-.707v-.86c0-.471-.236-.707-.615-.707s-.604.236-.604.707v.86c0 .471.225.707.604.707zm4.557 4.341c-.788 0-1.434-.491-1.434-1.392v-1.035c0-.901.646-1.402 1.434-1.402.789 0 1.434.501 1.434 1.402v1.035c0 .901-.645 1.392-1.434 1.392zm0-.839c.379 0 .604-.236.604-.707v-.86c0-.471-.225-.707-.604-.707s-.614.236-.614.707v.86c0 .471.235.707.614.707z"/><path fill="#EAECEF" d="M215.095 438.03h-.476v-.63c-.776-.053-1.298-.414-1.674-.914l.453-.407c.33.438.714.707 1.229.776v-1.974c-1.052-.238-1.521-.668-1.521-1.459 0-.822.622-1.298 1.513-1.382v-.63h.476v.622c.691.062 1.191.361 1.559.868l-.468.353a1.572 1.572 0 00-1.098-.668v1.797l.069.016c1.06.238 1.528.66 1.528 1.466 0 .876-.614 1.444-1.59 1.536v.63zm-1.382-4.654c0 .522.299.737.914.906v-1.697c-.553.069-.914.346-.914.791zm2.365 2.527c0-.515-.276-.768-.99-.937v1.889c.606-.077.99-.43.99-.952zm2.931 1.421v-4.47h-.023l-.86.607c-.023.015-.084.023-.084-.047v-.568c0-.046.015-.084.053-.107l.899-.653a.203.203 0 01.123-.046h.461c.053 0 .077.023.077.077v5.207c0 .053-.024.076-.077.076h-.492c-.054 0-.077-.023-.077-.076zm4.163 0v-4.47h-.023l-.86.607c-.023.015-.085.023-.085-.047v-.568c0-.046.016-.084.054-.107l.899-.653a.2.2 0 01.122-.046h.461c.054 0 .077.023.077.077v5.207c0 .053-.023.076-.077.076h-.491c-.054 0-.077-.023-.077-.076zm5.445.076h-.507c-.054 0-.077-.023-.077-.076v-.814c0-.031-.015-.047-.053-.047h-2.082c-.054 0-.077-.023-.077-.076v-.438c0-.031.008-.062.023-.092l1.736-3.756a.115.115 0 01.108-.061h.53c.053 0 .076.023.053.069l-1.705 3.732v.016h1.414c.038 0 .053-.016.053-.046v-1.406c0-.054.023-.077.077-.077h.507c.054 0 .077.023.077.077v1.406c0 .03.015.046.046.046h.491c.054 0 .077.023.077.077v.453c0 .053-.023.076-.077.076h-.491c-.031 0-.046.016-.046.047v.814c0 .053-.023.076-.077.076zm2.089.093c-.323 0-.469-.185-.469-.446v-.1c0-.261.146-.445.469-.445.322 0 .468.184.468.445v.1c0 .261-.146.446-.468.446zm2.921-.169v-4.47h-.023l-.86.607c-.023.015-.085.023-.085-.047v-.568c0-.046.016-.084.054-.107l.899-.653a.2.2 0 01.122-.046h.461c.054 0 .077.023.077.077v5.207c0 .053-.023.076-.077.076h-.491c-.054 0-.077-.023-.077-.076zm5.445.076h-.507c-.054 0-.077-.023-.077-.076v-.814c0-.031-.015-.047-.053-.047h-2.082c-.054 0-.077-.023-.077-.076v-.438c0-.031.008-.062.023-.092l1.736-3.756a.115.115 0 01.108-.061h.53c.053 0 .076.023.053.069l-1.705 3.732v.016h1.414c.038 0 .053-.016.053-.046v-1.406c0-.054.023-.077.077-.077h.507c.054 0 .077.023.077.077v1.406c0 .03.015.046.046.046h.491c.054 0 .077.023.077.077v.453c0 .053-.023.076-.077.076h-.491c-.031 0-.046.016-.046.047v.814c0 .053-.023.076-.077.076z"/><path fill="#23292F" d="M26.96 478.34a7.68 7.68 0 100-15.36 7.68 7.68 0 100 15.36z"/><path fill="#fff" d="M30.236 466.82h1.341l-2.79 2.762a2.607 2.607 0 01-3.659 0l-2.79-2.762h1.341l2.12 2.098a1.65 1.65 0 002.317 0l2.12-2.098zm-6.574 7.68H22.32l2.808-2.779c1.01-1 2.648-1 3.658 0l2.808 2.779h-1.341l-2.137-2.115a1.65 1.65 0 00-2.317 0l-2.137 2.115z"/><path fill="#EAECEF" d="M44.356 466.272v2.888H43.2v-7.147h3.082c1.28 0 2.069.829 2.069 2.15 0 1.014-.482 1.72-1.393 1.987l1.546 3.01h-1.29l-1.434-2.888h-1.423zm0-.972H46.2c.584 0 .932-.318.932-.891v-.492c0-.573-.348-.891-.932-.891h-1.843v2.274zm6.034-2.417c-.46 0-.665-.246-.665-.584v-.174c0-.338.204-.583.665-.583.461 0 .656.245.656.583v.174c0 .338-.195.584-.656.584zm-.563 6.277v-5.325h1.116v5.325h-1.116zm2.71 2.048v-7.373h1.116v.881h.051c.226-.635.789-1.004 1.495-1.004 1.342 0 2.12 1.035 2.12 2.786 0 1.751-.778 2.785-2.12 2.785-.706 0-1.27-.379-1.495-1.003h-.05v2.928h-1.117zm2.325-2.888c.768 0 1.28-.542 1.28-1.361v-.922c0-.819-.512-1.362-1.28-1.362-.676 0-1.209.369-1.209.911v1.823c0 .543.533.911 1.209.911zm3.735 2.888v-7.373h1.116v.881h.051c.226-.635.789-1.004 1.495-1.004 1.342 0 2.12 1.035 2.12 2.786 0 1.751-.778 2.785-2.12 2.785-.706 0-1.27-.379-1.495-1.003h-.05v2.928h-1.117zm2.325-2.888c.768 0 1.28-.542 1.28-1.361v-.922c0-.819-.512-1.362-1.28-1.362-.676 0-1.209.369-1.209.911v1.823c0 .543.533.911 1.209.911zm5.588.84h-.716c-.758 0-1.137-.42-1.137-1.106v-6.471h1.116v6.666h.737v.911zm3.156.123c-1.516 0-2.447-1.085-2.447-2.785 0-1.7.931-2.786 2.447-2.786 1.567 0 2.365 1.178 2.365 2.653v.419h-3.655v.175c0 .819.502 1.402 1.403 1.402.655 0 1.095-.307 1.403-.798l.655.645c-.4.645-1.178 1.075-2.171 1.075zm0-4.7c-.768 0-1.29.573-1.29 1.393v.071h2.478v-.102c0-.819-.45-1.362-1.188-1.362z"/><path fill="#848E9C" d="M42.503 481.16l1.75-2.726-1.704-2.634h.775l1.344 2.135h.016l1.375-2.135h.737l-1.72 2.611 1.766 2.749h-.776l-1.405-2.25h-.016l-1.405 2.25h-.737zm5.885-2.304v2.304h-.645v-5.36h2.135c.937 0 1.497.545 1.497 1.52 0 .784-.376 1.313-1.075 1.475l1.229 2.365h-.73l-1.16-2.304h-1.251zm0-.553h1.49c.507 0 .806-.276.806-.768v-.399c0-.492-.3-.768-.806-.768h-1.49v1.935zm4.912 2.857h-.645v-5.36h2.135c.96 0 1.498.591 1.498 1.536 0 .944-.538 1.536-1.498 1.536H53.3v2.288zm0-4.792v1.935h1.49c.507 0 .806-.276.806-.768v-.399c0-.492-.299-.768-.806-.768H53.3z"/><path fill="#0ECB81" d="M209.874 463.227v1.588h1.598c.071 0 .122.051.122.122v.727a.118.118 0 01-.122.123h-1.598v1.598a.119.119 0 01-.123.123h-.727a.12.12 0 01-.123-.123v-1.598h-1.597a.118.118 0 01-.123-.123v-.727c0-.071.051-.122.123-.122h1.597v-1.588a.12.12 0 01.123-.123h.727c.072 0 .123.052.123.123zm4.252 4.168h2.754c.072 0 .123.051.123.123v.819a.118.118 0 01-.123.123h-3.993a.118.118 0 01-.123-.123v-.86c0-.062.02-.102.061-.143l2.704-3.103c.235-.266.389-.656.389-.973 0-.614-.41-1.024-1.024-1.024-.584 0-1.034.41-1.034 1.024 0 .082-.052.123-.123.123h-.881c-.072 0-.123-.041-.123-.123 0-1.167.922-2.068 2.161-2.068 1.29 0 2.15.829 2.15 2.078 0 .482-.276 1.116-.686 1.577l-2.232 2.55zm4.938 1.188c-.502 0-.748-.297-.748-.696v-.154c0-.399.246-.696.748-.696.501 0 .747.297.747.696v.154c0 .399-.246.696-.747.696zm4.209-7.393c1.269 0 2.16.829 2.16 2.181 0 .501-.133.962-.512 1.74l-1.607 3.257a.156.156 0 01-.144.092h-.932c-.092 0-.133-.051-.092-.143l1.444-2.888a1.706 1.706 0 01-.553.092c-1.055 0-1.915-.84-1.915-2.109 0-1.342.881-2.222 2.151-2.222zm.01 3.389c.614 0 1.044-.451 1.044-1.188 0-.747-.43-1.198-1.044-1.198-.625 0-1.055.451-1.055 1.198 0 .676.399 1.188 1.055 1.188zm5.695-.328c1.055 0 1.915.84 1.915 2.11 0 1.341-.88 2.222-2.15 2.222s-2.161-.83-2.161-2.181c0-.502.133-.963.512-1.741l1.608-3.256a.155.155 0 01.143-.093h.932c.092 0 .133.052.092.144l-1.444 2.887c.174-.061.369-.092.553-.092zm-.245 3.328c.624 0 1.054-.45 1.054-1.198 0-.676-.399-1.188-1.054-1.188-.615 0-1.045.451-1.045 1.188 0 .748.43 1.198 1.045 1.198zm4.763-2.56c-.788 0-1.433-.501-1.433-1.403v-1.034c0-.901.645-1.392 1.433-1.392.789 0 1.434.491 1.434 1.392v1.034c0 .902-.645 1.403-1.434 1.403zm.144 3.298l3.266-6.912a.155.155 0 01.144-.093h.706c.092 0 .133.052.092.144l-3.256 6.912a.155.155 0 01-.143.092h-.717c-.092 0-.133-.051-.092-.143zm-.144-4.076c.379 0 .615-.235.615-.706v-.861c0-.471-.236-.706-.615-.706s-.604.235-.604.706v.861c0 .471.225.706.604.706zm4.557 4.342c-.788 0-1.434-.492-1.434-1.393v-1.034c0-.901.646-1.403 1.434-1.403.789 0 1.434.502 1.434 1.403v1.034c0 .901-.645 1.393-1.434 1.393zm0-.84c.379 0 .604-.235.604-.706v-.861c0-.471-.225-.706-.604-.706s-.614.235-.614.706v.861c0 .471.235.706.614.706z"/><path fill="#EAECEF" d="M215.095 481.09h-.476v-.63c-.776-.054-1.298-.415-1.674-.914l.453-.407c.33.438.714.707 1.229.776v-1.974c-1.052-.238-1.521-.668-1.521-1.459 0-.822.622-1.298 1.513-1.383v-.629h.476v.622c.691.061 1.191.361 1.559.867l-.468.354a1.57 1.57 0 00-1.098-.668v1.797l.069.015c1.06.238 1.528.661 1.528 1.467 0 .875-.614 1.444-1.59 1.536v.63zm-1.382-4.654c0 .522.299.737.914.906v-1.697c-.553.069-.914.345-.914.791zm2.365 2.526c0-.514-.276-.768-.99-.937v1.89c.606-.077.99-.43.99-.953zm3.139 1.59c-.761 0-1.244-.338-1.467-1.021-.085-.261-.123-.845-.123-1.751 0-.907.038-1.49.123-1.751.223-.684.706-1.022 1.467-1.022.76 0 1.244.338 1.467 1.022.084.261.123.844.123 1.751 0 .906-.039 1.49-.123 1.751-.223.683-.707 1.021-1.467 1.021zm0-.614c.422 0 .706-.177.814-.538.054-.177.084-.714.084-1.62 0-.907-.023-1.444-.084-1.621-.123-.353-.392-.537-.814-.537-.423 0-.707.176-.814.537-.054.177-.085.714-.085 1.621 0 .906.023 1.443.085 1.62.123.353.391.538.814.538zm3.164.614c-.323 0-.469-.184-.469-.445v-.1c0-.261.146-.446.469-.446.322 0 .468.185.468.446v.1c0 .261-.146.445-.468.445zm3.128 0c-.96 0-1.643-.63-1.643-1.643 0-.377.123-.784.361-1.222l1.359-2.534c.023-.038.054-.054.108-.054h.529c.062 0 .077.023.054.077l-1.206 2.227.024.016c.115-.085.299-.123.537-.123.868 0 1.528.637 1.528 1.59 0 1.021-.698 1.666-1.651 1.666zm0-.614c.645 0 .968-.507.968-1.014s-.323-1.014-.968-1.014-.967.507-.967 1.014.322 1.014.967 1.014zm4.147.614c-.844 0-1.482-.461-1.597-1.144-.008-.046.015-.077.069-.092l.484-.123c.046-.008.077 0 .092.054.138.468.461.683.952.683.569 0 .922-.392.922-.945 0-.606-.384-.998-.983-.998h-.238c-.054 0-.085-.031-.085-.084v-.446c0-.054.031-.084.085-.084h.23c.538 0 .891-.346.891-.899 0-.499-.33-.852-.86-.852-.453 0-.707.222-.852.66-.016.046-.047.069-.093.061l-.476-.122c-.054-.016-.069-.039-.061-.093.092-.637.683-1.121 1.505-1.121.937 0 1.521.584 1.521 1.452 0 .491-.223.883-.668 1.159v.016c.399.153.768.645.768 1.328 0 .937-.669 1.59-1.606 1.59zm5.614-.092h-2.88c-.053 0-.076-.023-.076-.077v-.415c0-.038.015-.076.038-.107l1.935-2.465c.254-.331.384-.638.384-.937 0-.5-.338-.845-.852-.845-.492 0-.799.261-.876.791-.007.054-.038.069-.084.061l-.484-.099c-.046-.016-.069-.054-.061-.1.115-.684.629-1.268 1.52-1.268.922 0 1.513.607 1.513 1.46 0 .422-.176.852-.522 1.29l-1.659 2.081v.016h2.104c.054 0 .077.023.077.076v.461c0 .054-.023.077-.077.077zm2.519-.077v-4.47h-.023l-.86.607c-.023.015-.084.023-.084-.046v-.568c0-.046.015-.085.053-.108l.899-.653a.21.21 0 01.123-.046h.461c.053 0 .077.023.077.077v5.207c0 .054-.024.077-.077.077h-.492c-.054 0-.077-.023-.077-.077z"/><path fill="#F6921A" d="M34.41 515.575c-1.02 4.12-5.198 6.617-9.307 5.596-4.109-1.022-6.617-5.198-5.596-9.307 1.022-4.12 5.188-6.617 9.308-5.596a7.686 7.686 0 015.596 9.307z"/><path fill="#fff" d="M30.286 512.578c.148-1.021-.624-1.566-1.691-1.941l.34-1.385-.84-.215-.34 1.35c-.227-.056-.454-.102-.67-.158l.34-1.362-.84-.216-.34 1.385c-.181-.046-.363-.08-.533-.125l-1.158-.295-.227.896s.624.148.613.148c.34.091.409.306.397.488l-.397 1.578c.023.011.057.011.09.022-.022-.011-.056-.011-.09-.022l-.556 2.213c-.046.102-.148.261-.386.204.011.012-.613-.147-.613-.147l-.42.964 1.1.273c.205.057.41.102.602.159l-.351 1.396.84.215.34-1.384c.227.068.454.125.67.17l-.34 1.373.84.216.351-1.396c1.442.272 2.52.159 2.974-1.135.363-1.044-.023-1.646-.772-2.043.545-.114.953-.477 1.067-1.226zm-1.93 2.701c-.26 1.045-2.02.477-2.599.341l.465-1.85c.58.136 2.407.42 2.134 1.509zm.261-2.712c-.238.953-1.702.465-2.179.352l.42-1.68c.477.113 2.01.329 1.76 1.328z"/><path fill="#EAECEF" d="M43.199 512.22v-7.147h3.164c1.178 0 1.905.727 1.905 1.843 0 1.075-.656 1.464-1.24 1.515v.062c.584.02 1.496.471 1.496 1.669 0 1.157-.789 2.058-1.843 2.058h-3.482zm1.157-6.154v2.027h1.792c.563 0 .901-.307.901-.849v-.328c0-.543-.338-.85-.9-.85h-1.793zm0 2.99v2.171h1.987c.594 0 .962-.328.962-.911v-.349c0-.583-.368-.911-.962-.911h-1.987zm6.074-3.113c-.46 0-.665-.246-.665-.584v-.174c0-.338.204-.583.665-.583.461 0 .656.245.656.583v.174c0 .338-.195.584-.656.584zm-.563 6.277v-5.325h1.116v5.325h-1.116zm5.157 0h-.972c-.768 0-1.178-.43-1.178-1.157v-3.256h-.83v-.912h.451c.369 0 .492-.153.492-.522v-.932h1.003v1.454h1.116v.912H53.99v3.502h1.034v.911zm3.311.123c-1.536 0-2.416-1.085-2.416-2.785 0-1.7.88-2.785 2.416-2.785 1.065 0 1.741.522 2.059 1.31l-.922.43c-.154-.491-.532-.809-1.137-.809-.819 0-1.239.564-1.239 1.383v.952c0 .819.42 1.382 1.24 1.382.644 0 1.023-.348 1.249-.88l.85.45c-.349.871-1.076 1.352-2.1 1.352zm5.191 0c-1.485 0-2.447-1.085-2.447-2.785 0-1.7.962-2.785 2.447-2.785s2.447 1.085 2.447 2.785c0 1.7-.962 2.785-2.447 2.785zm0-.922c.758 0 1.27-.471 1.27-1.413v-.901c0-.942-.512-1.413-1.27-1.413s-1.27.471-1.27 1.413v.901c0 .942.512 1.413 1.27 1.413zm4.254-5.478c-.46 0-.665-.246-.665-.584v-.174c0-.338.205-.583.665-.583.461 0 .656.245.656.583v.174c0 .338-.195.584-.656.584zm-.563 6.277v-5.325h1.116v5.325h-1.116zm3.826 0h-1.116v-5.325h1.116v.881h.051c.226-.573.676-1.003 1.496-1.003 1.085 0 1.73.757 1.73 2.068v3.379h-1.116v-3.236c0-.829-.318-1.249-1.004-1.249-.583 0-1.157.297-1.157.922v3.563z"/><path fill="#848E9C" d="M43.033 524.22v-5.36h2.204c.883 0 1.428.545 1.428 1.382 0 .799-.514 1.083-.868 1.137v.046c.384.023 1.053.353 1.053 1.244 0 .883-.592 1.551-1.383 1.551h-2.434zm.645-4.792v1.751h1.482c.507 0 .814-.269.814-.745v-.261c0-.476-.307-.745-.814-.745h-1.482zm0 2.304v1.92h1.59c.552 0 .89-.292.89-.83v-.261c0-.537-.338-.829-.89-.829h-1.59zm7.687-2.304H49.66v4.792h-.645v-4.792H47.31v-.568h4.055v.568zm2.624 4.884c-1.351 0-2.158-.952-2.158-2.741 0-1.79.807-2.804 2.158-2.804.891 0 1.506.43 1.844 1.175l-.523.315c-.215-.553-.66-.914-1.32-.914-.922 0-1.468.73-1.468 1.828v.799c0 1.098.546 1.766 1.467 1.766.684 0 1.152-.384 1.367-.967l.515.322c-.338.753-.99 1.221-1.882 1.221z"/><path fill="#0ECB81" d="M204.414 506.287v1.588h1.598c.071 0 .122.051.122.122v.727a.118.118 0 01-.122.123h-1.598v1.598a.119.119 0 01-.123.123h-.727a.12.12 0 01-.123-.123v-1.598h-1.597a.118.118 0 01-.123-.123v-.727c0-.071.051-.122.123-.122h1.597v-1.588a.12.12 0 01.123-.123h.727c.072 0 .123.052.123.123zm4.887-2.037h.932c.071 0 .122.051.122.122v7.025a.118.118 0 01-.122.123h-.891a.118.118 0 01-.123-.123v-5.867l-1.27 1.116c-.082.071-.154.03-.154-.072v-1.003c0-.062.031-.113.072-.154l1.29-1.106a.186.186 0 01.144-.061zm5.542 0c1.269 0 2.16.829 2.16 2.181 0 .501-.133.962-.512 1.741l-1.607 3.256a.156.156 0 01-.144.092h-.932c-.092 0-.133-.051-.092-.143l1.444-2.888a1.706 1.706 0 01-.553.092c-1.055 0-1.915-.84-1.915-2.109 0-1.342.881-2.222 2.151-2.222zm.01 3.389c.614 0 1.044-.451 1.044-1.188 0-.747-.43-1.198-1.044-1.198-.625 0-1.055.451-1.055 1.198 0 .676.399 1.188 1.055 1.188zm4.211 4.004c-.502 0-.748-.297-.748-.696v-.154c0-.399.246-.696.748-.696.501 0 .747.297.747.696v.154c0 .399-.246.696-.747.696zm4.424-4.997c1.28 0 1.986.891 1.986 2.488 0 1.618-.768 2.509-2.191 2.509-.666 0-1.208-.195-1.587-.574-.308-.307-.482-.747-.553-1.331-.011-.082.041-.133.123-.133h.89c.082 0 .123.062.134.133.092.604.389.85.993.85.758 0 1.055-.399 1.055-1.454 0-1.044-.318-1.485-1.014-1.485-.471 0-.799.164-.942.512-.041.082-.082.133-.154.133h-.809a.118.118 0 01-.123-.122v-3.677c0-.071.051-.123.123-.123h3.728c.071 0 .122.052.122.123v.758a.118.118 0 01-.122.123h-2.765v1.597c.266-.215.645-.327 1.106-.327zm5.49.665c1.055 0 1.915.84 1.915 2.11 0 1.341-.88 2.222-2.15 2.222s-2.161-.83-2.161-2.181c0-.502.133-.963.512-1.741l1.608-3.256a.155.155 0 01.143-.093h.932c.092 0 .133.052.092.144l-1.444 2.888a1.68 1.68 0 01.553-.093zm-.245 3.328c.624 0 1.054-.45 1.054-1.198 0-.676-.399-1.188-1.054-1.188-.615 0-1.045.451-1.045 1.188 0 .748.43 1.198 1.045 1.198zm4.763-2.56c-.788 0-1.433-.501-1.433-1.403v-1.034c0-.901.645-1.392 1.433-1.392.789 0 1.434.491 1.434 1.392v1.034c0 .902-.645 1.403-1.434 1.403zm.144 3.298l3.266-6.912a.155.155 0 01.144-.093h.706c.092 0 .133.052.092.144l-3.256 6.912a.155.155 0 01-.143.092h-.717c-.092 0-.133-.051-.092-.143zm-.144-4.076c.379 0 .615-.235.615-.706v-.861c0-.471-.236-.706-.615-.706s-.604.235-.604.706v.861c0 .471.225.706.604.706zm4.557 4.342c-.788 0-1.434-.492-1.434-1.393v-1.034c0-.901.646-1.403 1.434-1.403.789 0 1.434.502 1.434 1.403v1.034c0 .901-.645 1.393-1.434 1.393zm0-.84c.379 0 .604-.235.604-.706v-.861c0-.471-.225-.706-.604-.706s-.614.235-.614.706v.861c0 .471.235.706.614.706z"/><path fill="#EAECEF" d="M204.364 523.612c-1.352 0-2.151-.983-2.151-2.772 0-1.79.799-2.773 2.151-2.773.891 0 1.49.438 1.828 1.175l-.5.307c-.215-.545-.675-.913-1.328-.913-.822 0-1.329.529-1.452 1.32h1.974v.515h-2.004v.737h2.004v.515h-1.974c.131.791.638 1.321 1.452 1.321.676 0 1.144-.4 1.367-.976l.499.331c-.33.699-.883 1.213-1.866 1.213zm4.285 0c-.983 0-1.659-.637-1.659-1.582 0-.591.308-1.083.761-1.321v-.023c-.361-.192-.638-.614-.638-1.137 0-.829.607-1.482 1.536-1.482.945 0 1.536.653 1.536 1.482 0 .523-.276.945-.637 1.137v.023c.453.238.76.73.76 1.321 0 .945-.676 1.582-1.659 1.582zm-.852-4.078c0 .576.422.86.852.86.423 0 .853-.292.853-.86 0-.568-.423-.852-.853-.852-.422 0-.852.291-.852.852zm.852 3.464c.653 0 .983-.499.983-.991 0-.499-.322-.991-.983-.991-.66 0-.983.492-.983.983 0 .5.33.999.983.999zm4.163.614c-.96 0-1.644-.63-1.644-1.643 0-.377.123-.784.361-1.221l1.36-2.535c.023-.038.053-.054.107-.054h.53c.061 0 .077.023.054.077l-1.206 2.227.023.016c.115-.085.3-.123.538-.123.867 0 1.528.637 1.528 1.59 0 1.021-.699 1.666-1.651 1.666zm0-.614c.645 0 .967-.507.967-1.014s-.322-1.014-.967-1.014-.968.507-.968 1.014.323 1.014.968 1.014zm3.202-.377c.323 0 .469.185.469.454v.107c0 .415-.261.983-.699 1.359h-.515c.307-.322.492-.591.576-.952-.207-.046-.299-.2-.299-.407v-.107c0-.269.146-.454.468-.454zm3.249.991c-.822 0-1.413-.461-1.505-1.121-.008-.054.007-.077.061-.092l.468-.123c.054-.016.093.015.1.069.062.407.392.653.876.653.399 0 .66-.185.791-.53.046-.123.069-.346.069-.668 0-.308-.031-.538-.077-.684-.107-.345-.384-.522-.783-.522-.4 0-.676.23-.791.499-.023.054-.054.085-.092.085h-.469c-.054 0-.077-.031-.077-.085v-2.857c0-.054.023-.077.077-.077h2.704c.053 0 .076.023.076.077v.461c0 .054-.023.077-.076.077h-2.12c-.031 0-.046.015-.046.046v1.513h.023c.184-.231.476-.353.883-.353.668 0 1.16.314 1.329.883.076.253.115.56.115.937 0 .353-.039.645-.108.868-.184.599-.745.944-1.428.944zm4.116 0c-.96 0-1.643-.63-1.643-1.643 0-.377.123-.784.361-1.221l1.359-2.535c.023-.038.054-.054.108-.054h.529c.062 0 .077.023.054.077l-1.206 2.227.024.016c.115-.085.299-.123.537-.123.868 0 1.528.637 1.528 1.59 0 1.021-.698 1.666-1.651 1.666zm0-.614c.645 0 .968-.507.968-1.014s-.323-1.014-.968-1.014-.967.507-.967 1.014.322 1.014.967 1.014zm3.756.522h-.523c-.061 0-.069-.023-.046-.084l1.828-4.632v-.03h-1.636c-.03 0-.046.015-.046.046v.668c0 .054-.023.084-.076.084h-.477c-.053 0-.076-.03-.076-.084v-1.252c0-.054.023-.077.076-.077h2.865c.054 0 .077.023.077.077v.492c0 .023 0 .046-.016.076l-1.843 4.647c-.023.046-.054.069-.107.069zm3.571.092c-.323 0-.469-.184-.469-.445v-.1c0-.261.146-.446.469-.446.322 0 .468.185.468.446v.1c0 .261-.146.445-.468.445zm3.128 0c-.983 0-1.659-.637-1.659-1.582 0-.591.308-1.083.761-1.321v-.023c-.361-.192-.638-.614-.638-1.137 0-.829.607-1.482 1.536-1.482.945 0 1.536.653 1.536 1.482 0 .523-.276.945-.637 1.137v.023c.453.238.76.73.76 1.321 0 .945-.676 1.582-1.659 1.582zm-.852-4.078c0 .576.422.86.852.86.423 0 .853-.292.853-.86 0-.568-.423-.852-.853-.852-.422 0-.852.291-.852.852zm.852 3.464c.653 0 .983-.499.983-.991 0-.499-.322-.991-.983-.991-.66 0-.983.492-.983.983 0 .5.33.999.983.999zm3.978.522h-.529c-.062 0-.077-.023-.054-.077l1.206-2.227-.024-.015c-.115.084-.299.123-.537.123-.868 0-1.528-.638-1.528-1.59 0-1.022.698-1.667 1.658-1.667.953 0 1.636.63 1.636 1.644 0 .376-.123.783-.361 1.221l-1.359 2.534c-.023.039-.054.054-.108.054zm-.783-3.825c0 .676.484 1.014.96 1.014.484 0 .968-.338.968-1.014 0-.683-.484-1.021-.96-1.021-.484 0-.968.338-.968 1.021z"/><rect fill="#FCD535" rx="10.24" height="20.48" width="62.08" y="84.52" x="178.32"/><path fill="#202630" d="M192.865 98.36v-7.148h2.529c1.823 0 3.021 1.188 3.021 3.574s-1.198 3.574-3.021 3.574h-2.529zm1.157-1.024h1.372c1.065 0 1.782-.686 1.782-1.977v-1.146c0-1.29-.717-1.977-1.782-1.977h-1.372v5.1zm7.84 1.147c-1.515 0-2.447-1.086-2.447-2.785 0-1.7.932-2.786 2.447-2.786 1.567 0 2.365 1.178 2.365 2.652v.42h-3.655v.174c0 .82.502 1.403 1.403 1.403.655 0 1.095-.307 1.403-.799l.655.645c-.399.646-1.178 1.076-2.171 1.076zm0-4.7c-.768 0-1.29.573-1.29 1.392v.072h2.478v-.103c0-.819-.451-1.361-1.188-1.361zm3.601 6.625v-7.373h1.116v.88h.051c.226-.634.789-1.003 1.495-1.003 1.342 0 2.12 1.034 2.12 2.785 0 1.751-.778 2.786-2.12 2.786-.706 0-1.269-.38-1.495-1.004h-.051v2.929h-1.116zm2.325-2.888c.768 0 1.28-.542 1.28-1.362v-.921c0-.82-.512-1.362-1.28-1.362-.676 0-1.209.368-1.209.911v1.823c0 .543.533.911 1.209.911zm5.824.963c-1.485 0-2.447-1.086-2.447-2.785 0-1.7.962-2.786 2.447-2.786s2.447 1.086 2.447 2.785c0 1.7-.962 2.786-2.447 2.786zm0-.922c.758 0 1.27-.47 1.27-1.413v-.901c0-.942-.512-1.413-1.27-1.413s-1.27.47-1.27 1.413v.901c0 .942.512 1.413 1.27 1.413zm5.381.922c-1.004 0-1.659-.38-2.161-1.004l.717-.655c.389.47.87.758 1.505.758.645 0 .973-.267.973-.717 0-.338-.205-.594-.758-.666l-.491-.061c-1.086-.133-1.751-.604-1.751-1.587 0-1.035.809-1.639 1.976-1.639.962 0 1.505.318 1.986.85l-.686.656a1.694 1.694 0 00-1.3-.605c-.614 0-.901.266-.901.666 0 .41.256.594.819.686l.492.061c1.167.174 1.689.686 1.689 1.547 0 1.024-.829 1.71-2.109 1.71zm3.933-6.4c-.461 0-.665-.246-.665-.584v-.174c0-.338.204-.584.665-.584.461 0 .656.246.656.584v.174c0 .338-.195.584-.656.584zm-.563 6.277v-5.325h1.116v5.325h-1.116zm5.157 0h-.972c-.768 0-1.178-.43-1.178-1.157v-3.257h-.829v-.91h.45c.369 0 .492-.154.492-.523v-.932h1.003v1.454h1.116v.911h-1.116v3.502h1.034v.912z"/><rect stroke-width=".64" stroke="#EAECEF" rx="1.387" height="6.613" width="13.44" y="20.413" x="225.574" opacity=".35"/><path fill="#EAECEF" d="M239.975 22.44V25a1.389 1.389 0 000-2.56" opacity=".4"/><rect fill="#EAECEF" rx=".853" height="4.693" width="11.52" y="21.373" x="226.533"/><path fill="#EAECEF" d="M217.147 21.554c1.424 0 2.793.547 3.825 1.527a.199.199 0 00.279-.002l.743-.75a.211.211 0 00.06-.146.21.21 0 00-.062-.146 7.007 7.007 0 00-9.69 0 .207.207 0 00-.002.293l.743.749a.198.198 0 00.279.002 5.553 5.553 0 013.825-1.527zm0 2.437c.782 0 1.537.29 2.116.815a.2.2 0 00.279-.004l.742-.749a.208.208 0 00-.003-.295 4.604 4.604 0 00-6.267 0 .206.206 0 00-.002.295l.741.75a.2.2 0 00.279.003 3.153 3.153 0 012.115-.815zm1.486 1.64a.201.201 0 01-.061.147l-1.283 1.294a.202.202 0 01-.285 0l-1.284-1.294a.204.204 0 01-.06-.148.199.199 0 01.067-.145 2.199 2.199 0 012.839 0c.041.037.065.09.067.145zM208.4 20.307h-.64a.64.64 0 00-.64.64v5.546c0 .354.287.64.64.64h.64a.64.64 0 00.64-.64v-5.546a.64.64 0 00-.64-.64zm-3.626 1.493h.64a.64.64 0 01.64.64v4.053a.64.64 0 01-.64.64h-.64a.64.64 0 01-.64-.64V22.44a.64.64 0 01.64-.64zm-2.348 1.493h-.64a.64.64 0 00-.64.64v2.56c0 .354.287.64.64.64h.64a.64.64 0 00.64-.64v-2.56a.64.64 0 00-.64-.64zm-2.986 1.28h-.64a.64.64 0 00-.64.64v1.28c0 .354.287.64.64.64h.64a.64.64 0 00.64-.64v-1.28a.64.64 0 00-.64-.64z" clip-rule="evenodd" fill-rule="evenodd"/><path fill="#EAECEF" d="M33.731 27.484c1.72 0 2.742-1.345 2.742-3.628 0-2.24-1.087-3.469-2.704-3.469-1.472 0-2.513.99-2.513 2.372 0 1.298.938 2.245 2.227 2.245.792 0 1.434-.365 1.753-1.008h.08c-.015 1.59-.582 2.499-1.57 2.499-.582 0-1.046-.319-1.192-.835H31.35c.197 1.102 1.144 1.824 2.381 1.824zm.042-3.413c-.787 0-1.331-.553-1.331-1.35 0-.764.572-1.35 1.336-1.35.764 0 1.336.596 1.336 1.374 0 .769-.558 1.326-1.34 1.326zm4.717-.098c.445 0 .75-.314.75-.727 0-.417-.305-.726-.75-.726-.44 0-.75.31-.75.726 0 .413.31.727.75.727zm0 3.44c.445 0 .75-.314.75-.73 0-.413-.305-.727-.75-.727-.44 0-.75.314-.75.726 0 .418.31.732.75.732zm5.176-.093h1.158v-1.3h.914v-.998h-.914v-4.467h-1.706a90.045 90.045 0 00-2.757 4.476v.99h3.305v1.298zm-2.184-2.34a73.842 73.842 0 012.137-3.459h.066v3.53h-2.203v-.07zm6.873 2.34h1.21v-6.764h-1.206l-1.767 1.242v1.139l1.683-1.19h.08v5.573z"/><path fill="#EAECEF" d="M187.386 47.96a2.666 2.666 0 110 5.332 2.666 2.666 0 010-5.332zm0-1.6a4.266 4.266 0 013.744 6.314l1.638 1.638-.849.848-.848.849-1.637-1.638a4.267 4.267 0 11-2.048-8.01zm20.905.534h1.6v1.6h-1.6v1.6h-1.6v-3.2h1.6zm3.734 0h3.2v3.2h-1.6v-1.6h-1.6v-1.6zm-2.134 8.533v-1.6h-1.6v-1.6h-1.6v3.2h3.2zm3.734 0h-1.6v-1.6h1.6v-1.6h1.6v3.2h-1.6zm-.533-5.067h-4.267v1.6h4.267v-1.6z" clip-rule="evenodd" fill-rule="evenodd"/><path fill="#EAECEF" d="M229.201 51.163a4.211 4.211 0 012.248-1.887c.012 1.021.327 2.033.911 2.782a3.69 3.69 0 00-.573.491l-.523.477.794.793.566-.555c1.059-1.121 2.171-.586 2.595-.178l-2.859 2.874h-3.159v-4.797z"/><path fill="#EAECEF" d="M238.8 49.56a3.2 3.2 0 01-2.852 3.181l-.291-.28a2.815 2.815 0 00-1.644-.755 2.58 2.58 0 00-.752.037 3.2 3.2 0 115.539-2.183zm-3.2-1.334l-1.333 1.334 1.333 1.333 1.334-1.333-1.334-1.334z" clip-rule="evenodd" fill-rule="evenodd"/><rect fill="#FCD535" rx="5.12" height="15.36" width="15.36" y="43.56" x="19.6"/><path fill="#202630" d="M22.16 51.24l1.156-1.156 1.156 1.156-1.156 1.156-1.156-1.156zm1.982-1.982l3.138-3.138 3.138 3.138-1.156 1.156-1.982-1.982-1.982 1.982-1.156-1.156z"/><path fill="#202630" d="M26.124 51.24l1.156-1.156 1.156 1.156-1.156 1.156-1.156-1.156z"/><path fill="#202630" d="M25.298 52.066l-1.156 1.156 3.138 3.138 3.138-3.138-1.156-1.156-1.982 1.982-1.982-1.982zm4.79-.826l1.156-1.156L32.4 51.24l-1.156 1.156-1.156-1.156z"/><path fill="#181A20" d="M10 481h240v48H10z"/><path fill="#181A20" d="M10 481.12h240v47.72H10z"/><path fill="#181A20" d="M10 481.12h240v30.72H10z"/><path fill="#EAECEF" d="M28.56 497.16v-3.2c0-.707.574-1.28 1.28-1.28h.64c.707 0 1.28.573 1.28 1.28v3.2a1.28 1.28 0 01-1.28 1.28h-.64a1.28 1.28 0 01-1.28-1.28zm5.761-10.24a1.28 1.28 0 00-1.28 1.28v8.96c0 .707.573 1.28 1.28 1.28h.64a1.28 1.28 0 001.28-1.28v-8.96a1.28 1.28 0 00-1.28-1.28h-.64zm4.48 3.84a1.28 1.28 0 00-1.28 1.28v5.12c0 .707.574 1.28 1.28 1.28h.64a1.28 1.28 0 001.28-1.28v-5.12a1.28 1.28 0 00-1.28-1.28h-.64zm-13.507 17.6v-4.467h.858l1.197 2.272h.038l1.197-2.272h.82v4.467h-.692v-3.418h-.032l-.352.723-.98 1.786-.978-1.786-.352-.723h-.032v3.418h-.692zm7.99 0h-.39c-.365 0-.557-.231-.602-.557h-.032c-.127.416-.486.634-.972.634-.685 0-1.076-.391-1.076-.992 0-.66.493-.999 1.421-.999h.602v-.281c0-.404-.218-.64-.685-.64-.39 0-.627.192-.794.454l-.416-.378c.218-.371.608-.646 1.255-.646.858 0 1.337.422 1.337 1.165v1.67h.352v.57zm-1.798-.455c.429 0 .749-.204.749-.531v-.48h-.589c-.486 0-.723.16-.723.448v.115c0 .295.218.448.563.448zm3.18.455h-.698v-3.328h.698v.64h.032c.096-.339.384-.64.915-.64h.186v.672h-.276c-.55 0-.857.185-.857.531v2.125zm1.752 0v-4.736h.698v2.905h.032l.46-.595.8-.902h.813l-1.164 1.286 1.305 2.042h-.832l-.953-1.587-.461.499v1.088h-.698zm4.668.077c-.947 0-1.53-.679-1.53-1.741 0-1.063.583-1.741 1.53-1.741.98 0 1.479.736 1.479 1.658v.262H40.28v.109c0 .512.313.877.877.877.41 0 .685-.192.877-.5l.41.404c-.25.403-.737.672-1.358.672zm0-2.938c-.48 0-.806.358-.806.87v.045h1.549v-.064c0-.512-.282-.851-.743-.851zm3.78 2.861h-.608c-.48 0-.736-.269-.736-.723v-2.036h-.518v-.569h.282c.23 0 .307-.096.307-.327v-.582h.627v.909h.698v.569h-.698v2.189h.647v.57z"/><path fill="#707A8A" d="M75.92 488.2c0-.707.573-1.28 1.28-1.28h8.96c.707 0 1.28.573 1.28 1.28v7.68a1.28 1.28 0 01-1.28 1.28h-5.12l-2.56 2.56v-2.56H77.2a1.28 1.28 0 01-1.28-1.28v-7.68zm3.342 1.709a4.8 4.8 0 014.801 4.8h1.28a6.08 6.08 0 00-6.08-6.08v1.28zm2.24 4.8a2.24 2.24 0 00-2.24-2.24v-1.28a3.52 3.52 0 013.52 3.52h-1.28zm-2.24.96a.96.96 0 100-1.92.96.96 0 000 1.92z" clip-rule="evenodd" fill-rule="evenodd"/><path fill="#848E9C" d="M73.162 508.437c-.749 0-1.26-.295-1.632-.756l.5-.467c.313.384.684.583 1.17.583.57 0 .864-.282.864-.711 0-.345-.179-.544-.697-.646l-.397-.071c-.864-.16-1.305-.563-1.305-1.273 0-.794.614-1.28 1.561-1.28.672 0 1.165.243 1.51.685l-.505.448c-.23-.301-.55-.493-1.043-.493-.512 0-.807.211-.807.601 0 .372.23.532.71.628l.398.083c.89.173 1.292.569 1.292 1.28 0 .832-.595 1.389-1.619 1.389zm4.53 1.203v-1.831h-.033c-.14.391-.493.628-.934.628-.839 0-1.325-.647-1.325-1.741 0-1.095.486-1.741 1.325-1.741.441 0 .793.23.934.627h.032v-.55h.698v4.608h-.698zm-.756-1.805c.422 0 .755-.23.755-.57v-1.139c0-.339-.333-.569-.755-.569-.48 0-.8.339-.8.851v.576c0 .512.32.851.8.851zm4.466.525v-.551h-.026c-.121.327-.384.628-.934.628-.685 0-1.088-.468-1.088-1.287v-2.118h.697v2.029c0 .505.212.774.64.774.359 0 .71-.186.71-.576v-2.227h.698v3.328h-.697zm4.525 0h-.39c-.365 0-.557-.231-.602-.557h-.032c-.128.416-.486.634-.973.634-.684 0-1.075-.391-1.075-.992 0-.66.493-.999 1.42-.999h.602v-.281c0-.404-.217-.64-.684-.64-.39 0-.627.192-.794.454l-.416-.378c.218-.371.608-.646 1.254-.646.858 0 1.338.422 1.338 1.165v1.67h.352v.57zm-1.798-.455c.428 0 .748-.204.748-.531v-.48h-.588c-.487 0-.724.16-.724.448v.115c0 .295.218.448.564.448zm3.18.455h-.698v-3.328h.697v.64h.032c.096-.339.384-.64.916-.64h.185v.672h-.275c-.55 0-.858.185-.858.531v2.125zm3.026.077c-.947 0-1.53-.679-1.53-1.741 0-1.063.583-1.741 1.53-1.741.98 0 1.479.736 1.479 1.658v.262h-2.285v.109c0 .512.313.877.877.877.41 0 .684-.192.876-.5l.41.404c-.25.403-.736.672-1.357.672zm0-2.938c-.48 0-.806.358-.806.87v.045h1.549v-.064c0-.512-.282-.851-.743-.851z"/><path fill="#707A8A" d="M230.799 491.112v-.332a1.28 1.28 0 00-1.28-1.28h-8.576c-.312 0-.624-.312-.624-.676 0-.364.312-.624.624-.624h7.264a.64.64 0 100-1.28h-7.264c-.884 0-1.664.78-1.664 1.664v9.856h10.24a1.28 1.28 0 001.28-1.28v-6.048zm-1.92 1.568a1.28 1.28 0 100 2.56 1.28 1.28 0 000-2.56z" clip-rule="evenodd" fill-rule="evenodd"/><path fill="#848E9C" d="M213.729 508.36h-.723v-4.467h1.92c.819 0 1.299.531 1.299 1.344 0 .812-.48 1.344-1.299 1.344h-1.197v1.779zm0-3.834v1.421h1.152c.365 0 .582-.198.582-.557v-.307c0-.358-.217-.557-.582-.557h-1.152zm4.419 3.911c-.928 0-1.53-.679-1.53-1.741 0-1.063.602-1.741 1.53-1.741s1.529.678 1.529 1.741c0 1.062-.601 1.741-1.529 1.741zm0-.576c.473 0 .793-.295.793-.884v-.563c0-.589-.32-.883-.793-.883-.474 0-.794.294-.794.883v.563c0 .589.32.884.794.884zm3.004.499h-.697v-3.328h.697v.64h.032c.096-.339.384-.64.915-.64h.186v.672h-.275c-.551 0-.858.185-.858.531v2.125zm3.307 0h-.608c-.48 0-.736-.269-.736-.723v-2.036h-.518v-.569h.281c.231 0 .308-.096.308-.327v-.582h.627v.909h.697v.569h-.697v2.189h.646v.57zm.943 0v-2.759h-.505v-.569h.505v-.551c0-.537.288-.857.845-.857h.551v.569h-.698v.839h.698v.569h-.698v2.759h-.698zm3.283.077c-.928 0-1.529-.679-1.529-1.741 0-1.063.601-1.741 1.529-1.741.928 0 1.53.678 1.53 1.741 0 1.062-.602 1.741-1.53 1.741zm0-.576c.474 0 .794-.295.794-.884v-.563c0-.589-.32-.883-.794-.883-.473 0-.793.294-.793.883v.563c0 .589.32.884.793.884zm3.465.499h-.448c-.473 0-.71-.263-.71-.691v-4.045h.698v4.166h.46v.57zm1.019-3.923c-.288 0-.416-.154-.416-.365v-.109c0-.211.128-.365.416-.365s.41.154.41.365v.109c0 .211-.122.365-.41.365zm-.352 3.923v-3.328h.698v3.328h-.698zm2.999.077c-.928 0-1.529-.679-1.529-1.741 0-1.063.601-1.741 1.529-1.741.928 0 1.53.678 1.53 1.741 0 1.062-.602 1.741-1.53 1.741zm0-.576c.474 0 .794-.295.794-.884v-.563c0-.589-.32-.883-.794-.883-.473 0-.793.294-.793.883v.563c0 .589.32.884.793.884z"/><path fill="#707A8A" d="M174.615 486.92l-2.054 2.122 4.16 4.278 4.16-4.278-2.055-2.122h-4.211z"/><path fill="#707A8A" d="M180.882 498.44a3.2 3.2 0 100-6.4 3.2 3.2 0 000 6.4zm0-4.558l-1.358 1.358 1.358 1.358 1.357-1.358-1.357-1.358z" clip-rule="evenodd" fill-rule="evenodd"/><circle fill="#707A8A" r="1.28" cy="488.2" cx="182.801"/><circle fill="#707A8A" r="1.92" cy="496.52" cx="174.481"/><path fill="#848E9C" d="M166.249 508.36v-4.467h1.581c1.139 0 1.888.742 1.888 2.233s-.749 2.234-1.888 2.234h-1.581zm.724-.64h.857c.666 0 1.114-.429 1.114-1.235v-.717c0-.807-.448-1.235-1.114-1.235h-.857v3.187zm3.946-3.283c-.288 0-.416-.154-.416-.365v-.109c0-.211.128-.365.416-.365s.41.154.41.365v.109c0 .211-.122.365-.41.365zm-.352 3.923v-3.328h.698v3.328h-.698zm2.75.077c-.627 0-1.037-.237-1.351-.628l.448-.409c.244.294.544.473.941.473.403 0 .608-.166.608-.448 0-.211-.128-.371-.473-.416l-.308-.038c-.678-.083-1.094-.378-1.094-.992 0-.646.506-1.024 1.235-1.024.602 0 .941.198 1.242.531l-.429.41a1.059 1.059 0 00-.813-.378c-.384 0-.563.167-.563.416 0 .256.16.371.512.429l.307.038c.73.109 1.056.429 1.056.967 0 .64-.518 1.069-1.318 1.069zm3.393 0c-.96 0-1.511-.679-1.511-1.741 0-1.063.551-1.741 1.511-1.741.665 0 1.088.326 1.286.819l-.576.269c-.096-.307-.333-.506-.71-.506-.512 0-.775.352-.775.864v.596c0 .512.263.864.775.864.403 0 .64-.218.78-.551l.532.282c-.218.544-.672.845-1.312.845zm3.244 0c-.928 0-1.53-.679-1.53-1.741 0-1.063.602-1.741 1.53-1.741s1.529.678 1.529 1.741c0 1.062-.601 1.741-1.529 1.741zm0-.576c.473 0 .793-.295.793-.884v-.563c0-.589-.32-.883-.793-.883-.474 0-.794.294-.794.883v.563c0 .589.32.884.794.884zm3.799.499h-.819l-1.133-3.328h.691l.506 1.517.339 1.164h.039l.339-1.164.518-1.517h.666l-1.146 3.328zm2.988.077c-.947 0-1.529-.679-1.529-1.741 0-1.063.582-1.741 1.529-1.741.98 0 1.479.736 1.479 1.658v.262h-2.285v.109c0 .512.314.877.877.877.409 0 .685-.192.877-.5l.409.404c-.249.403-.736.672-1.357.672zm0-2.938c-.48 0-.806.358-.806.87v.045h1.549v-.064c0-.512-.282-.851-.743-.851zm2.949 2.861h-.698v-3.328h.698v.64h.032c.096-.339.384-.64.915-.64h.185v.672h-.275c-.55 0-.857.185-.857.531v2.125z"/><path fill="#181A20" d="M10 511.84h240v17H10z"/><rect fill="#181A20" rx="1.259" height="2.518" width="86.4" y="522.415" x="86.801"/><path stroke-width=".32" stroke="#333B47" d="M250 481.16H10"/><rect fill="#FCD535" transform="rotate(-45 111.723 488.081)" rx="7.68" height="25.343" width="25.343" y="488.081" x="111.723"/><path stroke-linejoin="round" stroke-linecap="round" stroke-width="1.792" stroke="#202630" d="M134.598 486.223h-9.536l3.13-2.977m-3.128 6.853h9.536l-3.13 2.977"/></g><defs><clipPath id="clip0_3669_48717"><rect fill="#fff" rx="32" height="520" width="240" y="9" x="10"/></clipPath><clipPath id="clip1_3669_48717"><path transform="translate(9.68 186.92)" fill="#fff" d="M0 0h240v28.16H0z"/></clipPath><clipPath id="clip2_3669_48717"><path transform="translate(127.398 219.8)" fill="#fff" d="M0 0h3.2v6.4H0z"/></clipPath><clipPath id="clip3_3669_48717"><path transform="translate(189.238 219.8)" fill="#fff" d="M0 0h3.2v6.4H0z"/></clipPath><clipPath id="clip4_3669_48717"><path transform="translate(19.28 376.86)" fill="#fff" d="M0 0h15.36v15.36H0z"/></clipPath><linearGradient gradientUnits="userSpaceOnUse" y2="168.362" x2="206.158" y1="153.322" x1="232.398" id="paint0_linear_3669_48717"><stop stop-color="#2EBD85"/><stop stop-opacity="0" stop-color="#2EBD85" offset="1"/></linearGradient><linearGradient gradientUnits="userSpaceOnUse" y2="435.259" x2="19.301" y1="419.942" x1="34.618" id="paint1_linear_3669_48717"><stop stop-color="#13EFB2" offset=".143"/><stop stop-color="#D142E9" offset=".857"/></linearGradient></defs></svg>